<svg width="18" height="18" viewBox="0 0 18 18" fill="none" xmlns="http://www.w3.org/2000/svg">
<path d="M1.5 4.49639C1.5 4.08417 1.83417 3.75 2.24639 3.75H8.2536C8.6658 3.75 9 4.08417 9 4.49639C9 4.90861 8.6658 5.24279 8.2536 5.24279H2.24639C1.83417 5.24279 1.5 4.90861 1.5 4.49639Z" fill="white"/>
<path d="M1.5 9.00031C1.5 8.58803 1.83417 8.25391 2.24639 8.25391H15.7536C16.1658 8.25391 16.5 8.58803 16.5 9.00031C16.5 9.41251 16.1658 9.74663 15.7536 9.74663H2.24639C1.83417 9.74663 1.5 9.41251 1.5 9.00031Z" fill="white"/>
<path d="M2.24639 12.7568C1.83417 12.7568 1.5 13.091 1.5 13.5032C1.5 13.9154 1.83417 14.2496 2.24639 14.2496H11.2536C11.6658 14.2496 12 13.9154 12 13.5032C12 13.091 11.6658 12.7568 11.2536 12.7568H2.24639Z" fill="white"/>
</svg>
