<svg width="296" height="296" viewBox="0 0 296 296" fill="none" xmlns="http://www.w3.org/2000/svg">
<path d="M148 282.934C225.027 282.934 287.469 246.883 287.469 202.411C287.469 157.938 225.027 121.887 148 121.887C70.9733 121.887 8.53076 157.938 8.53076 202.411C8.53076 246.883 70.9733 282.934 148 282.934Z" fill="#F0F0F0" fill-opacity="0.5"/>
<path d="M119.14 263.428C145.702 263.428 167.234 250.997 167.234 235.663C167.234 220.329 145.702 207.898 119.14 207.898C92.5784 207.898 71.0459 220.329 71.0459 235.663C71.0459 250.997 92.5784 263.428 119.14 263.428Z" fill="#E0E0E0"/>
<path d="M255.91 200.925L250.268 197.669C250.268 197.669 248.889 185.592 249.806 176.238C251.097 163.096 259.586 147.278 269.709 150.995C279.833 154.713 265.068 168.092 261.783 179.24C258.497 190.387 255.91 200.925 255.91 200.925Z" fill="#FFA629"/>
<path opacity="0.15" d="M255.91 200.925L250.268 197.669C250.268 197.669 248.889 185.592 249.806 176.238C251.097 163.096 259.586 147.278 269.709 150.995C279.833 154.713 265.068 168.092 261.783 179.24C258.497 190.387 255.91 200.925 255.91 200.925Z" fill="black"/>
<path d="M252.944 199.557C253.034 199.553 253.119 199.513 253.18 199.446C253.24 199.38 253.273 199.292 253.27 199.202C252.281 169.999 266.82 155.305 266.963 155.163C267.027 155.099 267.063 155.011 267.063 154.92C267.063 154.829 267.027 154.742 266.963 154.678C266.931 154.646 266.894 154.621 266.853 154.604C266.812 154.586 266.767 154.578 266.723 154.578C266.678 154.578 266.634 154.586 266.593 154.604C266.552 154.621 266.514 154.646 266.483 154.678C266.329 154.82 251.582 169.726 252.583 199.226C252.584 199.271 252.595 199.316 252.614 199.358C252.633 199.399 252.66 199.436 252.694 199.467C252.727 199.498 252.767 199.522 252.81 199.537C252.853 199.553 252.898 199.56 252.944 199.557Z" fill="white"/>
<path d="M259.456 202.955L255.442 200.64C255.442 200.64 254.755 192.352 258.823 182.288C262.375 173.527 271.136 166.251 275.552 167.779C279.969 169.306 279.856 172.438 277.701 175.723C275.547 179.009 262.457 186.829 259.456 202.955Z" fill="#FFA629"/>
<path d="M257.337 202.079C257.427 202.078 257.514 202.041 257.578 201.977C257.642 201.913 257.679 201.826 257.68 201.736C257.597 183.266 274.937 170.786 275.115 170.662C275.152 170.636 275.183 170.604 275.207 170.566C275.231 170.528 275.247 170.486 275.254 170.442C275.262 170.397 275.26 170.352 275.249 170.308C275.238 170.265 275.219 170.224 275.192 170.188C275.139 170.115 275.06 170.066 274.972 170.05C274.883 170.035 274.792 170.054 274.718 170.105C274.54 170.23 256.916 182.922 256.993 201.736C256.993 201.827 257.03 201.914 257.094 201.979C257.158 202.043 257.246 202.079 257.337 202.079Z" fill="white"/>
<path d="M47.1589 193.673L52.3685 190.156C52.3685 190.156 54.6595 176.54 52.5283 164.528C49.5328 147.68 37.8882 142.08 33.7442 143.856C29.6002 145.632 28.7122 150.646 36.4496 160.26C41.0376 165.914 46.9991 177.985 47.1589 193.673Z" fill="#FFA629"/>
<g opacity="0.15">
<path d="M47.1589 193.673L52.3685 190.156C52.3685 190.156 54.6595 176.54 52.5283 164.528C49.5328 147.68 37.8882 142.08 33.7442 143.856C29.6002 145.632 28.7122 150.646 36.4496 160.26C41.0376 165.914 46.9991 177.985 47.1589 193.673Z" fill="black"/>
</g>
<path d="M48.9467 186.924H48.8935C48.8402 186.921 48.7883 186.906 48.7411 186.881C48.6939 186.856 48.6525 186.822 48.6195 186.78C48.5865 186.738 48.5628 186.69 48.5498 186.638C48.5368 186.586 48.5349 186.532 48.5442 186.48C50.4267 170.62 43.7312 153.405 36.4437 146.555C36.3736 146.484 36.3342 146.389 36.3342 146.289C36.3342 146.189 36.3736 146.094 36.4437 146.023C36.4784 145.987 36.5199 145.959 36.5656 145.94C36.6114 145.921 36.6605 145.911 36.7101 145.911C36.7597 145.911 36.8088 145.921 36.8546 145.94C36.9003 145.959 36.9418 145.987 36.9765 146.023C44.4002 152.996 51.22 170.496 49.3138 186.586C49.3026 186.677 49.2595 186.761 49.1923 186.823C49.1251 186.884 49.038 186.92 48.9467 186.924Z" fill="white"/>
<path d="M33.5191 202.872C32.6903 203.369 30.275 201.576 29.606 201.144C28.4595 200.395 27.5256 199.363 26.8947 198.148C26.1868 196.77 25.9241 195.206 26.1428 193.672C26.2641 192.872 26.4401 192.081 26.6697 191.304C26.8769 190.529 27.0841 189.753 27.2617 188.972C27.5242 188.212 27.6251 187.405 27.5577 186.604C27.3268 185.023 25.9001 183.94 24.5977 183.011C23.1651 181.975 21.6377 180.607 21.6377 178.701C21.7107 177.203 22.284 175.773 23.2657 174.64C24.1537 173.456 25.2193 172.426 26.0185 171.188C26.6434 170.331 26.9624 169.289 26.9243 168.228C26.8213 167.575 26.5878 166.949 26.2375 166.387C25.539 165.156 24.6332 164.019 24.1419 162.711C23.6505 161.403 23.686 159.721 24.7339 158.744C25.5686 157.945 26.8414 157.815 27.9958 157.868C29.0836 157.977 30.1344 158.322 31.0742 158.881C34.1348 160.509 35.9345 164.061 39.1727 165.298C40.4219 165.772 41.7835 165.854 43.0799 166.174C44.3764 166.494 45.7143 167.127 46.3359 168.305C47.5614 170.644 45.4243 173.592 46.3004 176.072C47.0819 178.275 49.2604 179.08 50.4918 181.051C50.9915 181.926 51.1989 182.939 51.0838 183.94C51.0143 185.631 50.6351 187.294 49.9649 188.848C49.1941 190.459 48.3242 192.021 47.3601 193.524C47.3601 193.524 33.6435 202.795 33.5191 202.872Z" fill="#FFA629"/>
<path d="M41.5231 197.965C41.4733 197.964 41.4242 197.953 41.3785 197.934C41.3329 197.914 41.2915 197.885 41.2569 197.85C41.2223 197.814 41.195 197.772 41.1767 197.725C41.1584 197.679 41.1493 197.63 41.1501 197.58C41.4816 182.591 34.1053 166.204 28.8839 161.468C28.8097 161.401 28.7649 161.307 28.7594 161.208C28.7538 161.108 28.7879 161.01 28.8543 160.935C28.889 160.9 28.9305 160.872 28.9762 160.852C29.0219 160.833 29.0711 160.823 29.1207 160.823C29.1703 160.823 29.2194 160.833 29.2652 160.852C29.3109 160.872 29.3524 160.9 29.3871 160.935C34.7151 165.73 42.2394 182.401 41.902 197.598C41.9012 197.647 41.8908 197.695 41.8713 197.74C41.8519 197.785 41.8237 197.826 41.7886 197.86C41.7534 197.894 41.7118 197.921 41.6663 197.939C41.6207 197.957 41.5721 197.966 41.5231 197.965Z" fill="white"/>
<path d="M38.7583 179.702C38.7233 179.71 38.6867 179.71 38.6518 179.702C33.8092 178.304 27.8063 178.162 27.7471 178.156C27.6976 178.156 27.6488 178.145 27.6034 178.125C27.5581 178.105 27.5171 178.077 27.483 178.041C27.4488 178.005 27.4221 177.963 27.4044 177.917C27.3868 177.87 27.3785 177.821 27.3801 177.772C27.3791 177.722 27.3886 177.672 27.4078 177.626C27.4271 177.58 27.4557 177.538 27.4919 177.504C27.5281 177.469 27.571 177.442 27.618 177.425C27.665 177.408 27.715 177.401 27.7649 177.405C27.8241 177.405 33.9217 177.553 38.859 178.973C38.9544 179.002 39.0346 179.067 39.0822 179.155C39.1299 179.243 39.1411 179.345 39.1135 179.441C39.0905 179.517 39.0434 179.584 38.9793 179.63C38.9153 179.677 38.8377 179.702 38.7583 179.702Z" fill="white"/>
<path d="M178.287 183.366L176.043 182.069C175.669 181.827 175.358 181.499 175.135 181.113C174.912 180.727 174.783 180.294 174.759 179.849V86.5975C174.783 86.1532 174.911 85.7208 175.134 85.3352C175.356 84.9496 175.665 84.6216 176.037 84.3775L238.404 48.3721C238.802 48.1708 239.241 48.0659 239.686 48.0659C240.131 48.0659 240.571 48.1708 240.968 48.3721L243.211 49.6686C243.585 49.9113 243.897 50.2389 244.12 50.6247C244.343 51.0105 244.472 51.4435 244.496 51.8886V145.14C244.472 145.585 244.343 146.017 244.121 146.403C243.899 146.788 243.59 147.116 243.217 147.36L180.85 183.372C180.453 183.574 180.013 183.678 179.568 183.677C179.122 183.676 178.683 183.569 178.287 183.366Z" fill="#455A64"/>
<path d="M244.496 51.6814C244.407 51.0183 243.868 50.7756 243.223 51.1486L180.85 87.1599C180.473 87.3966 180.161 87.7244 179.944 88.1131L175.131 85.3366C175.347 84.9449 175.658 84.6148 176.037 84.3775L238.404 48.3721C238.802 48.1708 239.241 48.0659 239.686 48.0659C240.131 48.0659 240.57 48.1708 240.968 48.3721L243.211 49.6686C243.558 49.8917 243.852 50.187 244.074 50.5345C244.296 50.8819 244.44 51.2731 244.496 51.6814Z" fill="#455A64"/>
<path d="M180.631 183.472C180.252 183.626 179.845 183.696 179.436 183.679C179.028 183.661 178.628 183.557 178.263 183.372L176.014 182.069C175.642 181.825 175.332 181.497 175.11 181.112C174.888 180.726 174.759 180.294 174.735 179.849V86.5974C174.75 86.1522 174.878 85.7183 175.108 85.3364L179.921 88.1129C179.687 88.4952 179.556 88.9318 179.542 89.3798V182.632C179.566 183.366 180.027 183.703 180.631 183.472Z" fill="#263238"/>
<path d="M179.565 89.3917V182.632C179.565 183.449 180.157 183.78 180.85 183.372L243.217 147.36C243.589 147.116 243.899 146.788 244.121 146.403C244.343 146.017 244.472 145.585 244.496 145.14V51.8885C244.496 51.0716 243.904 50.74 243.217 51.1485L180.85 87.1599C180.475 87.4038 180.162 87.7332 179.939 88.1212C179.716 88.5092 179.588 88.9446 179.565 89.3917Z" fill="#37474F"/>
<path d="M165.002 124.912C164.197 124.432 160.462 122.307 160.266 122.194C160.114 122.104 159.984 121.98 159.886 121.832C159.788 121.684 159.725 121.516 159.7 121.341C159.676 121.165 159.691 120.986 159.745 120.818C159.799 120.649 159.89 120.494 160.012 120.365L174.758 104.547L179.566 107.306L164.825 123.136C164.709 123.259 164.621 123.406 164.567 123.566C164.512 123.726 164.493 123.896 164.51 124.064C164.526 124.232 164.579 124.395 164.664 124.541C164.749 124.687 164.864 124.814 165.002 124.912Z" fill="#455A64"/>
<path d="M179.566 107.323L164.825 123.136C164.661 123.31 164.554 123.531 164.518 123.767C164.482 124.004 164.519 124.246 164.624 124.462C164.728 124.677 164.896 124.856 165.104 124.974C165.312 125.093 165.551 125.145 165.79 125.125L179.566 123.988V107.323Z" fill="#37474F"/>
<path d="M212.031 78.8542C219.301 74.6569 225.191 78.0609 225.191 86.4554C225.191 94.85 219.301 105.05 212.031 109.247C204.761 113.445 198.871 110.041 198.871 101.652C198.871 93.2634 204.761 83.0514 212.031 78.8542Z" fill="#FFA629"/>
<path d="M211.936 85.4607C214.304 84.0991 216.204 85.2002 216.204 87.9234C216.124 89.4037 215.695 90.8442 214.954 92.1278C214.212 93.4115 213.178 94.5023 211.936 95.3116C209.568 96.6732 207.662 95.5721 207.662 92.8489C207.743 91.368 208.173 89.9273 208.915 88.6435C209.658 87.3598 210.693 86.2694 211.936 85.4607Z" fill="white"/>
<path d="M220.354 99.977C220.354 95.5074 217.211 93.6899 213.339 95.9277L210.918 97.3248C207.046 99.5626 203.903 105.021 203.903 109.479V110.704C204.634 110.938 205.397 111.055 206.164 111.053C208.241 110.983 210.263 110.37 212.031 109.277C215.396 107.204 218.243 104.39 220.354 101.048V99.977Z" fill="white"/>
<path d="M203.696 150.8L220.366 141.174C221.077 140.765 221.651 141.097 221.651 141.914V147.283C221.627 147.728 221.498 148.161 221.275 148.547C221.051 148.933 220.74 149.261 220.366 149.503L203.696 159.129C202.985 159.538 202.411 159.206 202.411 158.389V153.02C202.435 152.575 202.564 152.142 202.787 151.756C203.01 151.37 203.322 151.043 203.696 150.8Z" fill="#FFA629"/>
<path d="M195.532 138.806L228.512 119.755C229.359 119.264 230.051 119.661 230.051 120.643V122.638C230.022 123.172 229.868 123.692 229.6 124.154C229.333 124.617 228.96 125.011 228.512 125.302L195.514 144.353C194.667 144.844 193.981 144.448 193.981 143.465V141.488C194.008 140.95 194.162 140.426 194.432 139.959C194.702 139.493 195.079 139.098 195.532 138.806Z" fill="#FAFAFA"/>
<path d="M199.392 125.018C199.842 124.758 200.191 124.716 200.439 124.9C200.688 125.083 200.812 125.492 200.812 126.119C200.825 126.692 200.697 127.259 200.439 127.771C200.207 128.234 199.842 128.617 199.392 128.872L198.504 129.387V131.299C198.502 131.365 198.486 131.43 198.456 131.489C198.435 131.542 198.398 131.588 198.35 131.619L197.9 131.879C197.884 131.891 197.866 131.897 197.847 131.897C197.827 131.897 197.809 131.891 197.793 131.879C197.761 131.839 197.746 131.788 197.752 131.737V126.202C197.751 126.137 197.765 126.072 197.793 126.013C197.816 125.96 197.853 125.915 197.9 125.883L199.392 125.018ZM198.504 128.316L199.362 127.818C199.569 127.701 199.744 127.535 199.871 127.333C200.006 127.095 200.071 126.825 200.061 126.551C200.061 126.232 199.995 126.048 199.871 125.995C199.783 125.974 199.692 125.973 199.604 125.992C199.515 126.012 199.433 126.051 199.362 126.107L198.504 126.605V128.316Z" fill="#FAFAFA"/>
<path d="M203.293 122.763C203.352 122.727 203.399 122.727 203.429 122.763C203.467 122.816 203.493 122.877 203.506 122.941L204.874 127.57C204.874 127.57 204.874 127.606 204.874 127.623C204.873 127.689 204.856 127.754 204.826 127.813C204.805 127.866 204.768 127.912 204.72 127.943L204.317 128.174C204.246 128.215 204.193 128.221 204.163 128.174C204.134 128.144 204.114 128.107 204.104 128.067L203.861 127.256L202.085 128.274L201.848 129.364C201.832 129.423 201.81 129.48 201.783 129.535C201.754 129.608 201.699 129.667 201.629 129.701L201.227 129.932C201.212 129.945 201.193 129.951 201.174 129.951C201.154 129.951 201.135 129.945 201.12 129.932C201.089 129.894 201.074 129.845 201.079 129.796C201.076 129.774 201.076 129.752 201.079 129.731L202.44 123.527C202.457 123.435 202.483 123.346 202.517 123.26C202.546 123.198 202.594 123.146 202.654 123.112L203.293 122.763ZM203.601 126.35L203.009 124.261L202.417 127.055L203.601 126.35Z" fill="#FAFAFA"/>
<path d="M206.945 120.566C207.144 120.441 207.369 120.366 207.603 120.347C207.768 120.333 207.933 120.37 208.076 120.454C208.206 120.538 208.307 120.66 208.366 120.803C208.431 120.949 208.467 121.106 208.473 121.265C208.477 121.331 208.462 121.396 208.431 121.454C208.41 121.508 208.373 121.554 208.325 121.585L207.934 121.81C207.869 121.845 207.822 121.851 207.792 121.81C207.755 121.786 207.725 121.753 207.703 121.715C207.679 121.662 207.645 121.614 207.602 121.574C207.56 121.534 207.509 121.504 207.455 121.484C207.274 121.458 207.091 121.505 206.945 121.614C206.849 121.676 206.758 121.746 206.673 121.822C206.585 121.902 206.508 121.994 206.442 122.094C206.379 122.19 206.328 122.293 206.288 122.402C206.253 122.505 206.235 122.613 206.235 122.721C206.228 122.821 206.246 122.921 206.288 123.011C206.306 123.043 206.332 123.07 206.363 123.09C206.394 123.109 206.429 123.121 206.466 123.124C206.576 123.143 206.688 123.143 206.797 123.124L207.312 123.011C207.504 122.955 207.705 122.931 207.904 122.94C208.047 122.94 208.186 122.986 208.301 123.071C208.409 123.162 208.488 123.284 208.526 123.42C208.584 123.612 208.61 123.812 208.603 124.012C208.603 124.276 208.565 124.539 208.491 124.793C208.418 125.054 208.313 125.305 208.177 125.539C208.033 125.779 207.863 126.002 207.668 126.202C207.469 126.409 207.241 126.586 206.993 126.729C206.81 126.84 206.61 126.918 206.401 126.96C206.23 126.993 206.054 126.979 205.892 126.919C205.744 126.85 205.621 126.736 205.542 126.593C205.446 126.41 205.393 126.208 205.388 126.001C205.388 125.934 205.402 125.867 205.43 125.806C205.456 125.755 205.495 125.712 205.542 125.681L205.933 125.456C205.992 125.421 206.04 125.409 206.075 125.427C206.111 125.445 206.134 125.474 206.158 125.527C206.182 125.588 206.214 125.646 206.253 125.699C206.29 125.751 206.341 125.79 206.401 125.812C206.479 125.83 206.56 125.83 206.638 125.812C206.763 125.782 206.883 125.732 206.993 125.664C207.108 125.598 207.217 125.523 207.318 125.439C207.517 125.281 207.676 125.078 207.78 124.847C207.828 124.728 207.852 124.601 207.851 124.474C207.857 124.427 207.853 124.38 207.84 124.335C207.826 124.291 207.804 124.249 207.774 124.213C207.742 124.185 207.704 124.164 207.664 124.152C207.623 124.139 207.58 124.136 207.537 124.142C207.403 124.148 207.27 124.17 207.141 124.207C206.987 124.243 206.809 124.284 206.602 124.32C206.443 124.359 206.279 124.371 206.117 124.355C205.989 124.347 205.867 124.295 205.773 124.207C205.671 124.107 205.599 123.98 205.566 123.84C205.518 123.635 205.497 123.424 205.501 123.213C205.501 122.952 205.538 122.693 205.613 122.443C205.684 122.186 205.788 121.939 205.921 121.709C206.049 121.48 206.204 121.268 206.383 121.076C206.545 120.88 206.735 120.709 206.945 120.566Z" fill="#FAFAFA"/>
<path d="M210.835 118.329C211.032 118.2 211.258 118.123 211.492 118.104C211.657 118.09 211.823 118.127 211.966 118.211C212.092 118.297 212.191 118.418 212.25 118.56C212.315 118.706 212.351 118.862 212.356 119.022C212.363 119.088 212.349 119.154 212.315 119.211C212.294 119.265 212.257 119.31 212.208 119.341L211.818 119.566C211.758 119.602 211.711 119.614 211.676 119.566C211.638 119.542 211.609 119.507 211.593 119.466C211.539 119.362 211.448 119.282 211.338 119.241C211.25 119.228 211.16 119.232 211.073 119.255C210.987 119.277 210.906 119.317 210.835 119.371C210.736 119.431 210.643 119.501 210.557 119.578C210.471 119.659 210.395 119.751 210.332 119.85C210.267 119.945 210.215 120.049 210.178 120.158C210.141 120.261 210.121 120.369 210.119 120.478C210.112 120.578 210.13 120.677 210.172 120.768C210.19 120.8 210.216 120.827 210.247 120.846C210.278 120.866 210.313 120.878 210.35 120.88C210.459 120.9 210.571 120.9 210.681 120.88L211.196 120.768C211.389 120.714 211.588 120.69 211.788 120.697C211.931 120.696 212.07 120.741 212.185 120.827C212.293 120.92 212.373 121.041 212.416 121.176C212.468 121.369 212.492 121.569 212.487 121.768C212.486 122.033 212.448 122.296 212.374 122.55C212.302 122.811 212.196 123.062 212.06 123.296C211.918 123.538 211.747 123.763 211.551 123.965C211.351 124.166 211.127 124.341 210.882 124.486C210.7 124.596 210.5 124.674 210.29 124.717C210.122 124.749 209.948 124.735 209.787 124.675C209.636 124.609 209.511 124.494 209.432 124.35C209.335 124.167 209.284 123.964 209.284 123.758C209.277 123.692 209.292 123.625 209.325 123.568C209.346 123.515 209.384 123.469 209.432 123.438L209.823 123.213C209.882 123.177 209.935 123.166 209.965 123.183C209.985 123.193 210.003 123.207 210.018 123.224C210.032 123.241 210.042 123.262 210.048 123.284C210.074 123.344 210.106 123.401 210.142 123.456C210.181 123.508 210.235 123.547 210.296 123.568C210.374 123.586 210.455 123.586 210.533 123.568C210.659 123.538 210.779 123.489 210.888 123.42C211 123.353 211.107 123.278 211.208 123.195C211.312 123.114 211.404 123.018 211.48 122.911C211.557 122.809 211.62 122.697 211.67 122.579C211.717 122.461 211.741 122.334 211.741 122.207C211.746 122.16 211.742 122.113 211.729 122.068C211.716 122.024 211.694 121.982 211.664 121.946C211.632 121.918 211.594 121.897 211.553 121.885C211.512 121.872 211.469 121.869 211.427 121.875C211.295 121.883 211.164 121.905 211.036 121.94C210.882 121.976 210.699 122.017 210.498 122.053C210.337 122.092 210.171 122.104 210.006 122.088C209.878 122.081 209.756 122.029 209.663 121.94C209.562 121.839 209.493 121.712 209.462 121.573C209.409 121.37 209.385 121.161 209.39 120.951C209.393 120.689 209.43 120.428 209.503 120.176C209.576 119.92 209.68 119.674 209.811 119.442C209.939 119.212 210.096 118.999 210.278 118.808C210.438 118.621 210.626 118.459 210.835 118.329Z" fill="#FAFAFA"/>
<path d="M215.151 119.069L214.671 121.905C214.657 121.99 214.633 122.073 214.6 122.153C214.577 122.217 214.533 122.271 214.476 122.307L214.026 122.568C213.967 122.603 213.925 122.603 213.896 122.568C213.856 122.519 213.833 122.459 213.831 122.396L213.12 117.394C213.12 117.394 213.12 117.346 213.12 117.329C213.122 117.263 213.138 117.198 213.167 117.139C213.19 117.086 213.227 117.041 213.274 117.009L213.683 116.772C213.717 116.758 213.755 116.758 213.789 116.772C213.825 116.772 213.848 116.819 213.86 116.914L214.328 120.283L214.736 117.755C214.747 117.692 214.765 117.63 214.79 117.571C214.813 117.496 214.864 117.433 214.932 117.394L215.387 117.127C215.453 117.092 215.5 117.098 215.53 117.127C215.555 117.165 215.573 117.207 215.583 117.252L215.997 119.306L216.465 115.399C216.471 115.322 216.493 115.247 216.53 115.18C216.558 115.135 216.594 115.097 216.637 115.067L217.045 114.83C217.06 114.819 217.079 114.812 217.098 114.812C217.118 114.812 217.136 114.819 217.152 114.83C217.168 114.85 217.181 114.872 217.189 114.897C217.198 114.921 217.201 114.947 217.199 114.972C217.201 114.996 217.201 115.02 217.199 115.043L216.489 120.863C216.477 120.948 216.455 121.031 216.423 121.111C216.396 121.175 216.351 121.228 216.293 121.265L215.837 121.526C215.784 121.555 215.743 121.555 215.713 121.526C215.683 121.471 215.659 121.414 215.642 121.354L215.151 119.069Z" fill="#FAFAFA"/>
<path d="M217.921 116.559C217.934 116.231 217.974 115.904 218.039 115.582C218.107 115.267 218.21 114.962 218.347 114.67C218.478 114.387 218.645 114.122 218.845 113.883C219.047 113.645 219.289 113.445 219.561 113.291C219.769 113.149 220.014 113.069 220.265 113.06C220.454 113.062 220.634 113.136 220.769 113.267C220.912 113.428 221.015 113.621 221.071 113.83C221.147 114.102 221.189 114.382 221.195 114.664C221.195 114.771 221.195 114.889 221.195 115.02C221.195 115.15 221.195 115.286 221.195 115.428C221.195 115.57 221.195 115.706 221.195 115.837C221.195 115.967 221.195 116.091 221.195 116.204C221.182 116.53 221.142 116.855 221.076 117.174C221.008 117.488 220.907 117.794 220.775 118.086C220.64 118.368 220.471 118.633 220.271 118.874C220.069 119.109 219.829 119.309 219.561 119.466C219.348 119.606 219.1 119.686 218.845 119.696C218.752 119.698 218.661 119.681 218.575 119.647C218.49 119.612 218.412 119.561 218.347 119.495C218.193 119.329 218.087 119.125 218.039 118.903C217.969 118.63 217.929 118.35 217.921 118.068C217.921 117.962 217.921 117.843 217.921 117.713C217.921 117.583 217.921 117.447 217.921 117.305C217.921 117.163 217.921 117.032 217.921 116.896C217.921 116.76 217.915 116.665 217.921 116.559ZM220.443 115.144C220.456 114.999 220.44 114.853 220.395 114.715C220.35 114.576 220.278 114.448 220.183 114.339C220.029 114.203 219.815 114.209 219.561 114.339C219.285 114.501 219.065 114.745 218.933 115.037C218.766 115.382 218.677 115.761 218.673 116.144C218.673 116.363 218.673 116.606 218.673 116.873C218.673 117.139 218.673 117.376 218.673 117.589C218.66 117.734 218.676 117.88 218.721 118.018C218.766 118.156 218.838 118.284 218.933 118.394C219.087 118.524 219.3 118.512 219.561 118.364C219.833 118.201 220.049 117.96 220.183 117.672C220.35 117.329 220.439 116.953 220.443 116.571C220.443 116.346 220.443 116.103 220.443 115.837C220.443 115.57 220.449 115.357 220.443 115.144Z" fill="#FAFAFA"/>
<path d="M223.776 110.929C224.244 110.662 224.593 110.621 224.836 110.816C224.98 110.975 225.086 111.163 225.149 111.368C225.211 111.572 225.228 111.788 225.197 112C225.202 112.402 225.14 112.802 225.013 113.184C224.893 113.54 224.706 113.869 224.463 114.155L225.232 115.83C225.235 115.858 225.235 115.886 225.232 115.913C225.233 115.967 225.22 116.019 225.197 116.067C225.18 116.11 225.152 116.147 225.114 116.174L224.64 116.446C224.563 116.487 224.51 116.493 224.475 116.446C224.443 116.415 224.417 116.379 224.398 116.339L223.669 114.759L222.929 115.185V117.186C222.93 117.251 222.916 117.316 222.888 117.375C222.864 117.427 222.827 117.472 222.781 117.506L222.332 117.766C222.317 117.779 222.298 117.786 222.278 117.786C222.259 117.786 222.24 117.779 222.225 117.766C222.208 117.748 222.195 117.727 222.187 117.703C222.179 117.68 222.176 117.655 222.178 117.63V112.095C222.179 112.029 222.196 111.964 222.225 111.905C222.246 111.852 222.283 111.806 222.332 111.775L223.776 110.929ZM222.941 114.113L223.776 113.664C223.98 113.55 224.154 113.39 224.285 113.196C224.422 112.968 224.488 112.704 224.475 112.438C224.475 112.118 224.409 111.941 224.285 111.905C224.105 111.881 223.922 111.928 223.776 112.036L222.971 112.497L222.941 114.113Z" fill="#FAFAFA"/>
<path d="M227.743 108.65C227.957 108.509 228.203 108.424 228.459 108.401C228.644 108.394 228.825 108.46 228.962 108.584C229.119 108.749 229.227 108.954 229.276 109.176C229.355 109.47 229.399 109.772 229.406 110.076C229.406 110.491 229.406 110.917 229.406 111.349C229.394 111.701 229.35 112.052 229.276 112.397C229.208 112.717 229.105 113.029 228.968 113.326C228.836 113.599 228.669 113.854 228.471 114.084C228.273 114.319 228.037 114.52 227.772 114.676L226.369 115.44C226.354 115.452 226.335 115.459 226.316 115.459C226.296 115.459 226.277 115.452 226.263 115.44C226.245 115.422 226.232 115.4 226.224 115.377C226.216 115.353 226.213 115.328 226.215 115.304V109.768C226.217 109.703 226.233 109.638 226.263 109.579C226.283 109.525 226.321 109.48 226.369 109.449L227.743 108.65ZM228.654 110.491C228.652 110.33 228.628 110.171 228.583 110.017C228.556 109.9 228.496 109.794 228.412 109.709C228.374 109.672 228.33 109.643 228.281 109.624C228.232 109.604 228.18 109.595 228.127 109.597C227.979 109.607 227.836 109.656 227.713 109.739L226.967 110.165V114.025L227.743 113.581C227.893 113.494 228.027 113.381 228.139 113.249C228.249 113.12 228.343 112.976 228.417 112.823C228.491 112.66 228.547 112.489 228.583 112.314C228.624 112.131 228.648 111.945 228.654 111.758C228.672 111.325 228.672 110.905 228.654 110.491Z" fill="#FAFAFA"/>
<path d="M146.449 22.7269C147.471 22.9543 148.455 23.325 149.373 23.828C150.252 24.3006 151.04 24.9261 151.7 25.6751C152.331 26.3956 152.8 27.2436 153.073 28.1615C153.353 29.144 153.373 30.182 153.133 31.1747C152.974 31.9618 152.662 32.71 152.215 33.377C151.807 33.9473 151.321 34.4575 150.77 34.8925C150.23 35.3119 149.654 35.6824 149.048 35.9995L147.343 36.9053C146.829 37.1732 146.342 37.4883 145.886 37.8466C145.475 38.1625 145.159 38.5868 144.975 39.072C144.885 39.2937 144.735 39.4862 144.543 39.6285C144.452 39.6992 144.346 39.7483 144.233 39.7719C144.12 39.7955 144.003 39.793 143.891 39.7647L141.381 39.2082C141.261 39.1828 141.146 39.1337 141.044 39.0635C140.943 38.9934 140.856 38.9037 140.789 38.7997C140.718 38.703 140.671 38.591 140.652 38.4727C140.632 38.3545 140.641 38.2332 140.677 38.1189C140.879 37.3415 141.235 36.6127 141.725 35.9759C142.171 35.4125 142.689 34.9091 143.264 34.4781C143.824 34.0678 144.419 33.7054 145.04 33.3947C145.632 33.0928 146.224 32.8027 146.739 32.5127C147.218 32.2551 147.669 31.9476 148.083 31.5951C148.446 31.2908 148.698 30.8743 148.799 30.4111C148.893 30.0089 148.889 29.5898 148.786 29.1898C148.682 28.7898 148.484 28.4207 148.207 28.1141C147.515 27.3583 146.59 26.856 145.579 26.6874C143.708 26.273 142.129 26.9025 140.843 28.5759C140.718 28.7585 140.562 28.917 140.381 29.0435C140.177 29.1448 139.941 29.1618 139.724 29.0909L137.054 28.4989C136.863 28.4621 136.695 28.3514 136.586 28.1911C136.528 28.1054 136.489 28.0082 136.471 27.906C136.454 27.8039 136.459 27.6992 136.486 27.5991C136.712 26.7764 137.135 26.0209 137.717 25.3968C138.373 24.6731 139.153 24.0717 140.02 23.6208C140.967 23.125 141.989 22.7851 143.045 22.6144C144.176 22.4304 145.332 22.4686 146.449 22.7269ZM143.613 41.7775C143.848 41.8326 144.052 41.9774 144.181 42.181C144.311 42.3846 144.356 42.6307 144.306 42.8667L143.666 45.7675C143.645 45.889 143.598 46.0045 143.528 46.1065C143.459 46.2086 143.369 46.2948 143.264 46.3595C143.165 46.4279 143.053 46.4747 142.934 46.4972C142.816 46.5196 142.694 46.5171 142.577 46.4898L139.712 45.8327C139.59 45.8121 139.474 45.7655 139.372 45.696C139.27 45.6266 139.184 45.5359 139.12 45.4301C139.054 45.3301 139.008 45.2176 138.987 45.0996C138.966 44.9815 138.969 44.8603 138.996 44.7434L139.641 41.8426C139.696 41.6074 139.841 41.403 140.044 41.2726C140.247 41.1422 140.493 41.0961 140.73 41.144L143.613 41.7775Z" fill="#FFA629"/>
<path d="M149.61 50.4975C150.323 50.3832 151.048 50.3692 151.765 50.4561C152.45 50.5374 153.115 50.7378 153.731 51.0481C154.317 51.3522 154.833 51.7757 155.246 52.2913C155.617 52.7958 155.879 53.3726 156.013 53.9844C156.148 54.5962 156.153 55.2295 156.028 55.8433C155.915 56.3152 155.733 56.768 155.489 57.1871C155.253 57.5948 154.98 57.9793 154.672 58.3356C154.37 58.6908 154.08 59.0282 153.813 59.3538C153.553 59.6572 153.321 59.9842 153.121 60.3306C152.933 60.6343 152.839 60.9862 152.849 61.3429C152.843 61.5097 152.797 61.6725 152.712 61.8165C152.67 61.8829 152.613 61.9394 152.547 61.9823C152.48 62.0252 152.406 62.0534 152.328 62.0652L150.552 62.3493C150.469 62.3644 150.383 62.3627 150.301 62.3444C150.219 62.3261 150.141 62.2916 150.072 62.2428C150.002 62.1988 149.944 62.1389 149.901 62.0678C149.859 61.9968 149.834 61.9168 149.829 61.8343C149.755 61.2834 149.795 60.7231 149.948 60.1885C150.087 59.7153 150.286 59.2617 150.54 58.8388C150.789 58.4329 151.074 58.0505 151.392 57.6962C151.706 57.341 151.984 57.0095 152.257 56.6898C152.5 56.4043 152.71 56.0926 152.884 55.7604C153.038 55.4745 153.094 55.1459 153.044 54.825C152.999 54.5426 152.887 54.2751 152.717 54.0453C152.547 53.8154 152.324 53.63 152.067 53.5049C151.431 53.1974 150.71 53.11 150.019 53.2562C149.393 53.3478 148.81 53.6308 148.351 54.0664C147.892 54.502 147.579 55.0689 147.455 55.6893C147.421 55.8386 147.361 55.9808 147.278 56.1097C147.172 56.222 147.029 56.2916 146.875 56.305L145.005 56.6069C144.873 56.6321 144.737 56.6045 144.626 56.53C144.569 56.4908 144.521 56.4399 144.485 56.3807C144.449 56.3215 144.427 56.2553 144.418 56.1866C144.363 55.5992 144.454 55.0071 144.685 54.4639C144.919 53.8318 145.264 53.2465 145.703 52.7353C146.185 52.1755 146.752 51.6959 147.384 51.3145C148.067 50.9008 148.822 50.6233 149.61 50.4975ZM152.665 63.4327C152.747 63.4198 152.83 63.4231 152.91 63.4424C152.99 63.4617 153.066 63.4966 153.133 63.5452C153.202 63.5911 153.262 63.6512 153.307 63.7216C153.352 63.792 153.381 63.8711 153.393 63.9537L153.725 65.9842C153.75 66.1489 153.71 66.3171 153.613 66.4523C153.515 66.5875 153.368 66.6789 153.204 66.7065L151.221 67.0321C151.056 67.0575 150.888 67.0171 150.753 66.9196C150.684 66.8731 150.626 66.8127 150.582 66.7424C150.538 66.672 150.51 66.5932 150.498 66.5111L150.167 64.4805C150.152 64.3991 150.154 64.3153 150.173 64.2348C150.193 64.1542 150.229 64.0786 150.279 64.0129C150.326 63.9442 150.386 63.8861 150.456 63.8422C150.527 63.7983 150.606 63.7698 150.688 63.7583L152.665 63.4327Z" fill="#FFA629"/>
<g opacity="0.2">
<path d="M149.61 50.4975C150.323 50.3832 151.048 50.3692 151.765 50.4561C152.45 50.5374 153.115 50.7378 153.731 51.0481C154.317 51.3522 154.833 51.7757 155.246 52.2913C155.617 52.7958 155.879 53.3726 156.013 53.9844C156.148 54.5962 156.153 55.2295 156.028 55.8433C155.915 56.3152 155.733 56.768 155.489 57.1871C155.253 57.5948 154.98 57.9793 154.672 58.3356C154.37 58.6908 154.08 59.0282 153.813 59.3538C153.553 59.6572 153.321 59.9842 153.121 60.3306C152.933 60.6343 152.839 60.9862 152.849 61.3429C152.843 61.5097 152.797 61.6725 152.712 61.8165C152.67 61.8829 152.613 61.9394 152.547 61.9823C152.48 62.0252 152.406 62.0534 152.328 62.0652L150.552 62.3493C150.469 62.3644 150.383 62.3627 150.301 62.3444C150.219 62.3261 150.141 62.2916 150.072 62.2428C150.002 62.1988 149.944 62.1389 149.901 62.0678C149.859 61.9968 149.834 61.9168 149.829 61.8343C149.755 61.2834 149.795 60.7231 149.948 60.1885C150.087 59.7153 150.286 59.2617 150.54 58.8388C150.789 58.4329 151.074 58.0505 151.392 57.6962C151.706 57.341 151.984 57.0095 152.257 56.6898C152.5 56.4043 152.71 56.0926 152.884 55.7604C153.038 55.4745 153.094 55.1459 153.044 54.825C152.999 54.5426 152.887 54.2751 152.717 54.0453C152.547 53.8154 152.324 53.63 152.067 53.5049C151.431 53.1974 150.71 53.11 150.019 53.2562C149.393 53.3478 148.81 53.6308 148.351 54.0664C147.892 54.502 147.579 55.0689 147.455 55.6893C147.421 55.8386 147.361 55.9808 147.278 56.1097C147.172 56.222 147.029 56.2916 146.875 56.305L145.005 56.6069C144.873 56.6321 144.737 56.6045 144.626 56.53C144.569 56.4908 144.521 56.4399 144.485 56.3807C144.449 56.3215 144.427 56.2553 144.418 56.1866C144.363 55.5992 144.454 55.0071 144.685 54.4639C144.919 53.8318 145.264 53.2465 145.703 52.7353C146.185 52.1755 146.752 51.6959 147.384 51.3145C148.067 50.9008 148.822 50.6233 149.61 50.4975ZM152.665 63.4327C152.747 63.4198 152.83 63.4231 152.91 63.4424C152.99 63.4617 153.066 63.4966 153.133 63.5452C153.202 63.5911 153.262 63.6512 153.307 63.7216C153.352 63.792 153.381 63.8711 153.393 63.9537L153.725 65.9842C153.75 66.1489 153.71 66.3171 153.613 66.4523C153.515 66.5875 153.368 66.6789 153.204 66.7065L151.221 67.0321C151.056 67.0575 150.888 67.0171 150.753 66.9196C150.684 66.8731 150.626 66.8127 150.582 66.7424C150.538 66.672 150.51 66.5932 150.498 66.5111L150.167 64.4805C150.152 64.3991 150.154 64.3153 150.173 64.2348C150.193 64.1542 150.229 64.0786 150.279 64.0129C150.326 63.9442 150.386 63.8861 150.456 63.8422C150.527 63.7983 150.606 63.7698 150.688 63.7583L152.665 63.4327Z" fill="black"/>
</g>
<path d="M166.352 53.6886C166.433 53.7447 166.501 53.8167 166.553 53.9002C166.605 53.9837 166.639 54.0768 166.654 54.174C166.673 54.2704 166.671 54.3695 166.65 54.4653C166.629 54.5611 166.588 54.6514 166.529 54.7305L165.121 56.7137C165.064 56.7944 164.992 56.8628 164.909 56.9148C164.825 56.9667 164.732 57.001 164.635 57.0156C164.539 57.0345 164.44 57.0332 164.344 57.0118C164.248 56.9904 164.158 56.9494 164.079 56.8913L162.137 55.512C162.056 55.4566 161.988 55.3847 161.937 55.301C161.886 55.2173 161.853 55.1238 161.841 55.0265C161.822 54.9302 161.823 54.831 161.845 54.7353C161.866 54.6395 161.907 54.5492 161.965 54.47L163.392 52.4868C163.507 52.3261 163.681 52.2173 163.876 52.1841C164.071 52.1508 164.272 52.1958 164.434 52.3092L166.352 53.6886ZM174.545 40.2561C175.253 40.7523 175.884 41.3508 176.416 42.0321C176.935 42.6659 177.336 43.3877 177.6 44.1633C177.846 44.9066 177.928 45.694 177.843 46.4721C177.742 47.3019 177.428 48.0913 176.931 48.7632C176.562 49.3064 176.086 49.7695 175.534 50.1248C175.048 50.4296 174.519 50.661 173.965 50.8115C173.425 50.9525 172.875 51.0476 172.319 51.0956L170.745 51.2377C170.272 51.2755 169.805 51.3567 169.347 51.4804C168.926 51.5762 168.54 51.7897 168.234 52.0961C168.097 52.2361 167.922 52.3346 167.731 52.3803C167.64 52.4064 167.545 52.4103 167.452 52.3917C167.359 52.3732 167.272 52.3327 167.198 52.2737L165.482 51.0542C165.318 50.937 165.205 50.761 165.168 50.5628C165.146 50.4668 165.147 50.367 165.17 50.2713C165.194 50.1757 165.24 50.0869 165.304 50.0123C165.705 49.4919 166.206 49.0571 166.778 48.7336C167.293 48.4524 167.842 48.2395 168.412 48.1001C168.962 47.9667 169.523 47.8815 170.087 47.8456C170.644 47.81 171.165 47.7686 171.65 47.7212C172.095 47.682 172.533 47.5947 172.959 47.4608C173.331 47.3369 173.651 47.0933 173.87 46.7681C174.068 46.4935 174.197 46.1752 174.245 45.8402C174.294 45.5052 174.261 45.1635 174.149 44.8441C173.868 44.0551 173.333 43.3821 172.627 42.932C171.348 42.0203 169.953 41.9907 168.442 42.8432C168.29 42.94 168.121 43.0082 167.944 43.0444C167.852 43.0508 167.76 43.039 167.673 43.0095C167.585 42.98 167.505 42.9336 167.435 42.8728L165.612 41.5763C165.546 41.5325 165.489 41.4758 165.446 41.4097C165.402 41.3436 165.372 41.2694 165.357 41.1915C165.343 41.1109 165.346 41.0283 165.365 40.9488C165.385 40.8693 165.42 40.7947 165.47 40.7297C165.9 40.1785 166.459 39.7414 167.098 39.4569C167.823 39.1282 168.601 38.9279 169.395 38.8649C170.269 38.7919 171.148 38.8619 172 39.0721C172.918 39.2935 173.784 39.696 174.545 40.2561Z" fill="#FFA629"/>
<g opacity="0.6">
<path d="M166.352 53.6886C166.433 53.7447 166.501 53.8167 166.553 53.9002C166.605 53.9837 166.639 54.0768 166.654 54.174C166.673 54.2704 166.671 54.3695 166.65 54.4653C166.629 54.5611 166.588 54.6514 166.529 54.7305L165.121 56.7137C165.064 56.7944 164.992 56.8628 164.909 56.9148C164.825 56.9667 164.732 57.001 164.635 57.0156C164.539 57.0345 164.44 57.0332 164.344 57.0118C164.248 56.9904 164.158 56.9494 164.079 56.8913L162.137 55.512C162.056 55.4566 161.988 55.3847 161.937 55.301C161.886 55.2173 161.853 55.1238 161.841 55.0265C161.822 54.9302 161.823 54.831 161.845 54.7353C161.866 54.6395 161.907 54.5492 161.965 54.47L163.392 52.4868C163.507 52.3261 163.681 52.2173 163.876 52.1841C164.071 52.1508 164.272 52.1958 164.434 52.3092L166.352 53.6886ZM174.545 40.2561C175.253 40.7523 175.884 41.3508 176.416 42.0321C176.935 42.6659 177.336 43.3877 177.6 44.1633C177.846 44.9066 177.928 45.694 177.843 46.4721C177.742 47.3019 177.428 48.0913 176.931 48.7632C176.562 49.3064 176.086 49.7695 175.534 50.1248C175.048 50.4296 174.519 50.661 173.965 50.8115C173.425 50.9525 172.875 51.0476 172.319 51.0956L170.745 51.2377C170.272 51.2755 169.805 51.3567 169.347 51.4804C168.926 51.5762 168.54 51.7897 168.234 52.0961C168.097 52.2361 167.922 52.3346 167.731 52.3803C167.64 52.4064 167.545 52.4103 167.452 52.3917C167.359 52.3732 167.272 52.3327 167.198 52.2737L165.482 51.0542C165.318 50.937 165.205 50.761 165.168 50.5628C165.146 50.4668 165.147 50.367 165.17 50.2713C165.194 50.1757 165.24 50.0869 165.304 50.0123C165.705 49.4919 166.206 49.0571 166.778 48.7336C167.293 48.4524 167.842 48.2395 168.412 48.1001C168.962 47.9667 169.523 47.8815 170.087 47.8456C170.644 47.81 171.165 47.7686 171.65 47.7212C172.095 47.682 172.533 47.5947 172.959 47.4608C173.331 47.3369 173.651 47.0933 173.87 46.7681C174.068 46.4935 174.197 46.1752 174.245 45.8402C174.294 45.5052 174.261 45.1635 174.149 44.8441C173.868 44.0551 173.333 43.3821 172.627 42.932C171.348 42.0203 169.953 41.9907 168.442 42.8432C168.29 42.94 168.121 43.0082 167.944 43.0444C167.852 43.0508 167.76 43.039 167.673 43.0095C167.585 42.98 167.505 42.9336 167.435 42.8728L165.612 41.5763C165.546 41.5325 165.489 41.4758 165.446 41.4097C165.402 41.3436 165.372 41.2694 165.357 41.1915C165.343 41.1109 165.346 41.0283 165.365 40.9488C165.385 40.8693 165.42 40.7947 165.47 40.7297C165.9 40.1785 166.459 39.7414 167.098 39.4569C167.823 39.1282 168.601 38.9279 169.395 38.8649C170.269 38.7919 171.148 38.8619 172 39.0721C172.918 39.2935 173.784 39.696 174.545 40.2561Z" fill="white"/>
</g>
<path d="M122.266 106.093H101.232V55.1333C101.232 50.7072 102.99 46.4625 106.12 43.3328C109.25 40.2031 113.494 38.4448 117.92 38.4448H119.862C124.288 38.4448 128.533 40.2031 131.663 43.3328C134.792 46.4625 136.551 50.7072 136.551 55.1333V91.8373C136.543 95.6208 135.034 99.2466 132.356 101.919C129.678 104.592 126.049 106.093 122.266 106.093Z" fill="#263238"/>
<path d="M99.1838 228.772C98.8117 230.884 98.6137 233.022 98.5918 235.166C98.5148 239.05 97.8044 240.429 97.7097 243.614C97.5972 247.255 98.2307 248.616 99.7047 250.665C101.179 252.713 105.033 254.566 106.702 251.109C108.372 247.651 108.129 245.384 107.602 241.814C107.063 238.12 107.01 236.078 106.678 233.266C106.406 230.785 106.086 228.897 106.086 228.897L99.1838 228.772Z" fill="#263238"/>
<path d="M110.207 202.979L97.4194 202.749C97.6089 211.285 98.9646 220.763 99.1954 228.797C99.2428 230.306 99.1599 240.512 99.7282 243.597C100.587 248.261 106.116 247.628 106.412 244.84C106.708 242.051 106.057 230.134 106.074 228.903C106.021 223.765 108.442 215.092 109.692 205.868C109.745 205.424 110.147 203.423 110.207 202.979Z" fill="#FFA8A7"/>
<path d="M126.635 222.13C126.635 222.13 126.131 221.858 126.043 222.397C125.918 223.036 125.729 224.356 125.451 225.41C125.084 226.872 124.776 229.282 124.995 230.478C125.214 231.673 127.996 233.201 129.802 233.757C132.027 234.444 134.057 235.652 135.722 237.28C137.498 238.961 141.364 240.547 144.01 240.53C147.118 240.53 149.285 239.494 150.309 237.83C151.333 236.167 149.373 235.965 145.821 233.686L143.069 231.91C137.439 228.234 135.373 226.268 133.792 222.592L126.635 222.13Z" fill="#263238"/>
<path d="M133.839 219.851C133.745 217.211 135.568 194.768 135.568 194.768L123.426 200.303C126.025 215.826 126.581 219.49 126.623 222.03C126.57 222.242 126.548 222.462 126.558 222.681C126.558 225.694 129.974 227.322 132.626 229.335C134.88 231.101 137.283 232.67 139.807 234.024C141.737 234.989 145.656 235.077 146.141 233.84C142.909 231.371 138.208 227.677 135.639 224.859C134.384 223.533 133.934 222.497 133.839 219.851Z" fill="#FFA8A7"/>
<path d="M102.659 119.679C97.9938 129.914 97.9938 137.835 98.7693 150.901C99.4561 162.889 100.599 173.456 100.599 173.456C100.421 175.581 97.4669 179.731 97.0821 189.132C96.7269 197.917 97.6741 209.088 97.6741 209.088C97.6741 209.088 104.31 212.765 109.218 209.053C109.218 209.053 113.954 186.444 115.339 175.445C116.523 165.849 118.655 153.588 118.655 153.588L123.136 175.38C122.169 178.472 121.468 181.641 121.04 184.852C120.413 191.323 124.036 204.027 124.036 204.027C124.036 204.027 130.891 206.069 135.077 202.357C135.077 202.357 136.64 181.703 137.226 173.912C138.007 163.475 136.361 135.225 135.077 120.265L102.659 119.679Z" fill="#455A64"/>
<path d="M118.667 153.571L120.508 137.149C120.508 137.149 128.76 136.048 132.502 132.531C131.431 134.207 130.004 135.626 128.323 136.688C126.642 137.75 124.748 138.429 122.775 138.676L120.111 153.956L123.136 175.38L118.667 153.571Z" fill="#263238"/>
<path d="M152.085 115.641C152.426 112.645 152.576 109.629 152.535 106.613C152.351 104.009 151.883 103.582 148.243 98.9708C143.329 92.737 139.132 87.1308 134.692 81.5601C131.519 77.5818 128.18 76.9721 124.936 77.1497C122.662 77.274 127.102 88.2082 129.334 94.6788L142.08 108.401C142.475 108.943 142.656 109.611 142.589 110.278L141.819 121.952L145.638 127.067C145.638 127.067 151.422 122.082 152.085 115.641Z" fill="#FFA8A7"/>
<path d="M112.646 77.5048C110.177 77.6765 105.69 78.0968 105.69 78.0968C103.103 79.5413 102.446 80.7312 101.966 84.1648C101.759 85.633 102.955 89.5342 103.979 95.0813L105.921 105.364L105.708 110.467C104.701 113.581 102.422 117.447 100.409 123.148C110.296 128.665 118.584 128.873 126.102 127.884C131.833 127.144 134.869 125.759 135.882 124.385C135.669 118.755 135.29 115.274 135.171 109.39C135.13 106.921 135.278 104.423 135.379 101.581C139.221 98.4202 139.268 93.1632 137.155 89.7414C132.282 81.8501 127.541 76.8832 124.403 77.1378L112.646 77.5048Z" fill="#FFA629"/>
<path opacity="0.6" d="M112.646 77.5048C110.177 77.6765 105.69 78.0968 105.69 78.0968C103.103 79.5413 102.446 80.7312 101.966 84.1648C101.759 85.633 102.955 89.5342 103.979 95.0813L105.921 105.364L105.708 110.467C104.701 113.581 102.422 117.447 100.409 123.148C110.296 128.665 118.584 128.873 126.102 127.884C131.833 127.144 134.869 125.759 135.882 124.385C135.669 118.755 135.29 115.274 135.171 109.39C135.13 106.921 135.278 104.423 135.379 101.581C139.221 98.4202 139.268 93.1632 137.155 89.7414C132.282 81.8501 127.541 76.8832 124.403 77.1378L112.646 77.5048Z" fill="white"/>
<path opacity="0.1" d="M127.724 101.658C127.724 101.658 123.213 105.163 118.057 103.334C116.609 102.878 115.303 102.055 114.266 100.947C113.229 99.8381 112.495 98.4805 112.137 97.0054C112.137 97.0054 111.592 102.896 118.086 104.903C124.379 106.838 127.724 101.658 127.724 101.658Z" fill="black"/>
<path d="M133.845 61.3374C133.65 69.8859 130.885 71.9934 129.488 72.5854C128.091 73.1774 125.415 72.8222 122.81 72.39V77.5523C122.81 77.5523 125.818 80.7017 125.593 83.0519C125.368 85.4022 120.857 85.6686 117.494 83.3657C115.639 82.0912 113.961 80.5763 112.504 78.8606C112.224 78.5296 112.071 78.11 112.071 77.6766V65.5998C112.071 65.5998 110.645 67.1094 108.123 65.3807C107.579 65.0335 107.113 64.5768 106.755 64.0397C106.396 63.5026 106.154 62.8969 106.043 62.261C105.931 61.6252 105.953 60.9731 106.108 60.3463C106.262 59.7195 106.545 59.1316 106.939 58.6201C108.04 57.3236 110.834 57.2348 112.172 59.2121C112.93 60.6862 113.03 62.1721 113.877 61.5801C116.127 59.958 114.919 56.2521 117.636 54.4761C118.528 54.0107 119.454 53.6149 120.407 53.2921C125.255 51.6167 129.458 50.2078 130.471 46.8926C132.377 47.9819 134.082 51.2556 133.845 61.3374Z" fill="#FFA8A7"/>
<path d="M124.284 68.9742C124.906 68.9742 125.409 68.4706 125.409 67.8494C125.409 67.2282 124.906 66.7246 124.284 66.7246C123.663 66.7246 123.16 67.2282 123.16 67.8494C123.16 68.4706 123.663 68.9742 124.284 68.9742Z" fill="#B16668"/>
<path d="M123.539 60.0409C123.538 60.2725 123.47 60.499 123.342 60.6922C123.215 60.8854 123.033 61.0369 122.82 61.128C122.607 61.2191 122.372 61.2458 122.145 61.2047C121.917 61.1636 121.706 61.0566 121.538 60.8969C121.37 60.7371 121.253 60.5317 121.201 60.3061C121.149 60.0805 121.164 59.8445 121.245 59.6274C121.325 59.4103 121.468 59.2216 121.655 59.0846C121.841 58.9477 122.064 58.8685 122.295 58.8569C122.456 58.8489 122.616 58.8736 122.767 58.9295C122.917 58.9854 123.055 59.0713 123.171 59.1821C123.288 59.2928 123.38 59.4261 123.443 59.5737C123.506 59.7214 123.539 59.8804 123.539 60.0409Z" fill="#263238"/>
<path d="M132.507 60.1591C132.519 60.304 132.503 60.4498 132.458 60.5881C132.413 60.7263 132.341 60.8543 132.246 60.9645C132.152 61.0747 132.036 61.1649 131.906 61.2299C131.776 61.2949 131.634 61.3334 131.489 61.3431C131.343 61.3566 131.195 61.3389 131.056 61.291C130.917 61.2431 130.79 61.1663 130.683 61.0655C130.576 60.9647 130.492 60.8423 130.436 60.7065C130.38 60.5706 130.354 60.4244 130.358 60.2775C130.343 60.1316 130.358 59.9841 130.402 59.8441C130.445 59.7041 130.517 59.5744 130.613 59.4632C130.708 59.3519 130.826 59.2613 130.958 59.197C131.089 59.1327 131.233 59.0959 131.38 59.0891C131.526 59.0822 131.673 59.1053 131.81 59.1571C131.947 59.2088 132.072 59.288 132.178 59.3899C132.284 59.4917 132.367 59.614 132.424 59.7494C132.481 59.8847 132.509 60.0302 132.507 60.1769V60.1591Z" fill="#263238"/>
<path d="M122.017 63.0838C120.996 63.0838 120.017 62.6786 119.294 61.9571C118.571 61.2356 118.165 60.2569 118.163 59.2358C118.163 56.6191 120.863 56.6191 122.017 56.6191C123.171 56.6191 125.865 56.6191 125.865 59.2358C125.863 60.2559 125.458 61.2337 124.736 61.955C124.015 62.6763 123.037 63.0822 122.017 63.0838ZM122.017 57.223C119.649 57.223 118.773 57.815 118.773 59.2358C118.773 60.0993 119.116 60.9275 119.726 61.5381C120.337 62.1487 121.165 62.4918 122.029 62.4918C122.892 62.4918 123.721 62.1487 124.331 61.5381C124.942 60.9275 125.285 60.0993 125.285 59.2358C125.261 57.7854 124.349 57.223 122.017 57.223Z" fill="#455A64"/>
<path d="M131.791 63.0838C130.77 63.0838 129.79 62.6786 129.068 61.9571C128.345 61.2356 127.939 60.2569 127.937 59.2358C127.937 56.6191 130.637 56.6191 131.791 56.6191C132.945 56.6191 135.639 56.6191 135.639 59.2358C135.637 60.2559 135.231 61.2337 134.51 61.955C133.789 62.6763 132.811 63.0822 131.791 63.0838ZM131.791 57.223C129.458 57.223 128.547 57.815 128.547 59.2358C128.547 60.0993 128.89 60.9275 129.5 61.5381C130.111 62.1487 130.939 62.4918 131.803 62.4918C132.666 62.4918 133.494 62.1487 134.105 61.5381C134.716 60.9275 135.059 60.0993 135.059 59.2358C135.035 57.7854 134.123 57.223 131.791 57.223Z" fill="#455A64"/>
<path d="M126.463 57.9927L126.653 65.1855L130.435 64.0133L126.463 57.9927Z" fill="#F28F8F"/>
<path d="M122.805 72.4075C120.058 72.0464 114.404 70.4243 113.522 68.1865C113.877 69.3175 114.569 70.313 115.505 71.04C117.192 72.4904 122.805 74.1184 122.805 74.1184V72.4075Z" fill="#F28F8F"/>
<path d="M122.941 54.4995L120.43 56.0328C120.233 55.6882 120.175 55.2807 120.27 54.8948C120.365 54.509 120.605 54.1745 120.94 53.9608C121.105 53.8603 121.289 53.7945 121.481 53.7672C121.673 53.7399 121.868 53.7518 122.055 53.8022C122.242 53.8525 122.417 53.9403 122.569 54.0602C122.722 54.18 122.848 54.3295 122.941 54.4995Z" fill="#263238"/>
<path d="M133.153 56.2045L130.358 55.2277C130.412 55.0425 130.504 54.8703 130.627 54.7218C130.75 54.5732 130.902 54.4514 131.074 54.3638C131.246 54.2762 131.434 54.2246 131.626 54.2123C131.819 54.2001 132.012 54.2273 132.194 54.2923C132.568 54.427 132.877 54.7007 133.056 55.0566C133.234 55.4126 133.269 55.8236 133.153 56.2045Z" fill="#263238"/>
<path d="M125.563 59.5437C125.523 59.5437 125.483 59.5357 125.446 59.5201C125.409 59.5046 125.376 59.4818 125.348 59.4532C125.319 59.4245 125.297 59.3905 125.283 59.3532C125.268 59.3159 125.261 59.276 125.261 59.2358C125.261 58.7445 126.232 58.4248 127.108 58.4248C127.984 58.4248 128.547 58.7445 128.547 59.2358C128.529 59.3002 128.49 59.3568 128.436 59.397C128.383 59.4373 128.318 59.4591 128.251 59.4591C128.184 59.4591 128.119 59.4373 128.066 59.397C128.012 59.3568 127.973 59.3002 127.955 59.2358C127.955 59.1766 127.653 59.0286 127.126 59.0286C126.702 59.0196 126.28 59.092 125.883 59.2418C125.883 59.283 125.875 59.3237 125.858 59.3616C125.842 59.3994 125.818 59.4335 125.788 59.4618C125.758 59.4901 125.723 59.5119 125.684 59.526C125.646 59.5401 125.604 59.5461 125.563 59.5437Z" fill="#455A64"/>
<path d="M118.477 59.283H118.441L111.675 58.691C111.359 58.3776 110.982 58.1319 110.568 57.9688L118.513 58.7028C118.592 58.7132 118.665 58.7543 118.714 58.8173C118.764 58.8804 118.787 58.9604 118.779 59.0403C118.765 59.1097 118.727 59.1721 118.672 59.2164C118.617 59.2608 118.548 59.2844 118.477 59.283Z" fill="#455A64"/>
<path d="M90.6944 66.3397C92.9085 63.3797 94.4181 61.1478 96.4368 58.6437C97.5853 57.2051 98.3193 56.175 99.3968 54.701C100.155 53.6827 100.581 52.8243 101.445 52.5106C102.379 52.1279 103.22 51.5508 103.914 50.8174C104.34 50.346 104.735 49.8477 105.098 49.3256C106.367 47.6177 107.874 46.1006 109.573 44.8205C111.349 43.4826 113.332 42.4525 115.162 41.1797C116.251 40.416 117.417 39.1491 116.091 37.9651C115.684 37.6226 115.198 37.3884 114.676 37.2843C111.45 36.5858 108.644 37.6928 105.488 38.4979C104.118 38.84 102.777 39.2934 101.481 39.8536C100.843 40.1059 100.245 40.4488 99.7046 40.8718C98.9497 41.633 98.3309 42.5181 97.8753 43.4885C96.496 45.9512 93.536 48.1534 91.464 50.1011C89.0427 52.3803 86.876 54.4701 84.1113 56.9802C81.6249 59.2475 79.1918 61.3314 76.9126 63.8059C75.0241 65.8483 75.7286 67.4467 75.9773 68.0032C77.5165 71.1645 79.2392 72.3011 81.3053 74.2607C84.8573 77.6528 97.1413 87.4149 101.208 90.6413C102.082 91.3276 102.768 92.2236 103.203 93.2461L103.985 95.0517C108.626 95.9042 111.722 88.9363 107.88 80.5477C107.244 79.1912 106.272 78.0196 105.056 77.1437C100.202 73.6094 90.6944 66.3397 90.6944 66.3397Z" fill="#FFA8A7"/>
<path d="M90.6943 66.3398C89.217 68.1572 87.2484 69.5114 85.0229 70.2411C85.0229 70.2411 87.983 70.9989 92.0382 67.3581L90.6943 66.3398Z" fill="#F28F8F"/>
<path d="M150.877 109.467L150.119 108.816C150.006 108.741 149.877 108.694 149.742 108.679C149.607 108.664 149.471 108.68 149.344 108.727L141.121 110.965C140.707 111.103 140.327 111.329 140.008 111.627C139.69 111.926 139.439 112.289 139.274 112.693L133.354 129.761C133.283 129.9 133.255 130.057 133.274 130.212C133.293 130.367 133.358 130.513 133.46 130.631L134.242 131.306C134.356 131.384 134.487 131.434 134.624 131.45C134.761 131.467 134.9 131.45 135.029 131.401L143.264 129.163C143.678 129.025 144.058 128.799 144.376 128.501C144.695 128.202 144.946 127.838 145.111 127.434C146.295 124.078 149.847 113.724 151.031 110.367C151.173 109.947 151.102 109.627 150.877 109.467Z" fill="#455A64"/>
<path d="M134.129 130.418L140.049 113.35C140.214 112.946 140.464 112.583 140.783 112.286C141.102 111.988 141.482 111.764 141.896 111.628L150.113 109.39C150.877 109.183 151.297 109.621 151.025 110.367C149.841 113.723 146.289 124.077 145.105 127.434C144.94 127.838 144.689 128.202 144.371 128.5C144.052 128.799 143.672 129.024 143.258 129.163L135.041 131.424C134.283 131.602 133.875 131.164 134.129 130.418Z" fill="#FFA629"/>
<path d="M141.002 112.101C140.575 112.425 140.243 112.859 140.043 113.356L134.123 130.418C134.056 130.553 134.027 130.705 134.042 130.856C134.057 131.007 134.114 131.15 134.206 131.27L133.472 130.643C133.367 130.526 133.3 130.381 133.28 130.225C133.26 130.07 133.288 129.912 133.36 129.772L139.28 112.705C139.467 112.241 139.771 111.833 140.162 111.521L141.002 112.101Z" fill="#37474F"/>
<path d="M148.621 117.246C148.029 118.98 145.975 120.14 142.577 120.946C139.179 121.751 137.302 125.356 137.841 126.451C138.38 127.546 143.874 128.571 146.07 128.257C148.266 127.943 150.469 124.77 151.137 123.787C151.806 122.804 152.576 115.949 151.872 115.008C151.167 114.067 149.681 114.215 149.681 114.215L148.621 117.246Z" fill="#F28F8F"/>
</svg>
