<svg width="30" height="30" viewBox="0 0 30 30" fill="none" xmlns="http://www.w3.org/2000/svg">
<path d="M15.5437 17.9124L3.64685 10.3414C3.0318 9.93468 2.60109 9.30266 2.44747 8.58146C2.29384 7.86026 2.4296 7.10757 2.8255 6.48549C3.2214 5.8634 3.84577 5.42167 4.56416 5.25543C5.28256 5.08918 6.03751 5.21172 6.66644 5.59664L15.3946 11.1507L23.2312 5.66489C23.8426 5.25057 24.5925 5.09338 25.3188 5.22728C26.0452 5.36117 26.6897 5.7754 27.1132 6.38049C27.5367 6.98559 27.7052 7.73299 27.5822 8.46126C27.4593 9.18953 27.0549 9.84022 26.4562 10.2728L15.5437 17.9124Z" fill="#EA4435"/>
<path d="M25.7812 24.8438H22.0312V7.96875C22.0312 7.22283 22.3276 6.50746 22.855 5.98001C23.3825 5.45257 24.0978 5.15625 24.8437 5.15625C25.5897 5.15625 26.305 5.45257 26.8325 5.98001C27.3599 6.50746 27.6562 7.22283 27.6562 7.96875L27.6562 22.9688C27.6562 23.466 27.4587 23.9429 27.1071 24.2946C26.7554 24.6462 26.2785 24.8438 25.7812 24.8438Z" fill="#00AC47"/>
<path d="M27.6151 7.56154C27.6068 7.50529 27.6075 7.44782 27.5958 7.39167C27.5778 7.3056 27.5443 7.2261 27.5186 7.14304C27.4937 7.04797 27.4637 6.95431 27.4288 6.86245C27.4101 6.81792 27.3812 6.77882 27.3599 6.73551C27.3016 6.61054 27.2341 6.49006 27.158 6.37504C27.1205 6.32057 27.0736 6.27417 27.0321 6.2226C26.961 6.12889 26.8842 6.03969 26.802 5.95551C26.7396 5.89485 26.6686 5.84414 26.6008 5.78948C26.5288 5.72771 26.4537 5.66961 26.3758 5.61539C26.3015 5.56682 26.2201 5.52942 26.1414 5.48798C26.0586 5.44476 25.9774 5.3977 25.8911 5.3632C25.8078 5.32964 25.7189 5.30826 25.6318 5.28267C25.5447 5.25707 25.4581 5.22642 25.3686 5.20982C25.2578 5.19202 25.1461 5.18075 25.034 5.17607C24.9628 5.1711 24.8923 5.15864 24.8209 5.1592C24.6882 5.16306 24.5561 5.17638 24.4253 5.19904C24.3726 5.20692 24.3194 5.20626 24.267 5.21714C24.0901 5.27119 23.9137 5.32681 23.7378 5.38401C23.6895 5.40464 23.6472 5.43529 23.6004 5.45854C23.1243 5.68069 22.7228 6.03597 22.4443 6.48144C22.1658 6.92691 22.0223 7.44351 22.0311 7.96879V13.3707L26.4561 10.2729C26.8907 9.98126 27.2314 9.56994 27.437 9.0887C27.6427 8.60747 27.7044 8.07695 27.6148 7.56135L27.6151 7.56154Z" fill="#FFBA00"/>
<path d="M5.15625 5.15625C5.90217 5.15625 6.61754 5.45257 7.14499 5.98001C7.67243 6.50746 7.96875 7.22283 7.96875 7.96875V24.8438H4.21875C3.72147 24.8438 3.24456 24.6462 2.89292 24.2946C2.54129 23.9429 2.34375 23.466 2.34375 22.9688V7.96875C2.34375 7.22283 2.64007 6.50746 3.16751 5.98001C3.69496 5.45257 4.41033 5.15625 5.15625 5.15625Z" fill="#4285F4"/>
<path d="M2.38481 7.56171C2.39306 7.50546 2.39241 7.44799 2.40413 7.39183C2.42213 7.30577 2.4556 7.22627 2.48128 7.14321C2.50619 7.04817 2.53617 6.95454 2.5711 6.86271C2.58985 6.81818 2.61872 6.77908 2.6401 6.73577C2.69839 6.61075 2.76589 6.49023 2.84203 6.37521C2.87953 6.32074 2.92641 6.27434 2.96785 6.22277C3.03892 6.12906 3.11576 6.03986 3.19791 5.95568C3.26025 5.89502 3.33131 5.8443 3.39919 5.78965C3.47121 5.72786 3.5463 5.66975 3.62419 5.61555C3.69853 5.56699 3.77991 5.52958 3.85856 5.48815C3.93985 5.44217 4.02339 5.4003 4.10888 5.36271C4.19231 5.32915 4.28119 5.30777 4.36819 5.28218C4.45519 5.25658 4.54191 5.22593 4.63135 5.20933C4.74215 5.19154 4.85391 5.18027 4.96603 5.17558C5.03728 5.17062 5.10769 5.15815 5.17913 5.15871C5.31175 5.16257 5.44393 5.17589 5.57466 5.19855C5.62744 5.20643 5.6806 5.20577 5.7331 5.21665C5.82384 5.23977 5.91334 5.26756 6.00122 5.2999C6.0896 5.32339 6.17674 5.3513 6.26231 5.38352C6.3105 5.40415 6.35278 5.4348 6.39966 5.45805C6.52118 5.51515 6.63843 5.58094 6.75047 5.65493C7.12607 5.91282 7.43325 6.25827 7.64548 6.66143C7.85772 7.06459 7.96864 7.51335 7.96866 7.96896V13.3708L3.54366 10.2732C3.1092 9.98153 2.76855 9.5702 2.56289 9.089C2.35724 8.6078 2.29539 8.07732 2.38481 7.56171Z" fill="#C52528"/>
</svg>
