<svg width="34" height="34" viewBox="0 0 34 34" fill="none" xmlns="http://www.w3.org/2000/svg">
<rect width="34" height="34" rx="17" fill="#1B233A"/>
<path d="M24.0837 13.1045H19.8337" stroke="white" stroke-width="1.5" stroke-miterlimit="10" stroke-linecap="round" stroke-linejoin="round"/>
<path d="M12.75 13.1045H9.91669" stroke="white" stroke-width="1.5" stroke-miterlimit="10" stroke-linecap="round" stroke-linejoin="round"/>
<path d="M15.5835 15.5833C16.9527 15.5833 18.0627 14.4734 18.0627 13.1042C18.0627 11.735 16.9527 10.625 15.5835 10.625C14.2143 10.625 13.1044 11.735 13.1044 13.1042C13.1044 14.4734 14.2143 15.5833 15.5835 15.5833Z" stroke="white" stroke-width="1.5" stroke-miterlimit="10" stroke-linecap="round" stroke-linejoin="round"/>
<path d="M24.0835 20.8955H21.2502" stroke="white" stroke-width="1.5" stroke-miterlimit="10" stroke-linecap="round" stroke-linejoin="round"/>
<path d="M14.1667 20.8955H9.91669" stroke="white" stroke-width="1.5" stroke-miterlimit="10" stroke-linecap="round" stroke-linejoin="round"/>
<path d="M18.4168 23.3753C19.7861 23.3753 20.896 22.2654 20.896 20.8962C20.896 19.527 19.7861 18.417 18.4168 18.417C17.0476 18.417 15.9377 19.527 15.9377 20.8962C15.9377 22.2654 17.0476 23.3753 18.4168 23.3753Z" stroke="white" stroke-width="1.5" stroke-miterlimit="10" stroke-linecap="round" stroke-linejoin="round"/>
</svg>
