<svg width="16" height="18" viewBox="0 0 16 18" fill="none" xmlns="http://www.w3.org/2000/svg">
<path d="M8.30066 4.42188V6.93788" stroke="#1B233A" stroke-width="1.5" stroke-miterlimit="10" stroke-linecap="round"/>
<path d="M8.31569 1.06738C5.53524 1.06738 3.28369 3.31894 3.28369 6.09938V7.68605C3.28369 8.19983 3.07213 8.97049 2.80768 9.40872L1.84813 11.0105C1.2588 12.0003 1.6668 13.1034 2.7548 13.466C6.36635 14.6674 10.2726 14.6674 13.8841 13.466C14.9041 13.126 15.3424 11.9323 14.7908 11.0105L13.8312 9.40872C13.5668 8.97049 13.3552 8.19227 13.3552 7.68605V6.09938C13.3477 3.33405 11.081 1.06738 8.31569 1.06738Z" stroke="#1B233A" stroke-width="1.5" stroke-miterlimit="10" stroke-linecap="round"/>
<path d="M10.8167 13.7764C10.8167 15.159 9.68333 16.2924 8.30067 16.2924C7.61311 16.2924 6.97845 16.0053 6.52511 15.5519C6.07178 15.0986 5.78467 14.4639 5.78467 13.7764" stroke="#1B233A" stroke-width="1.5" stroke-miterlimit="10"/>
</svg>
