<svg width="42" height="42" viewBox="0 0 42 42" fill="none" xmlns="http://www.w3.org/2000/svg">
<path d="M37.0723 11.0326H35.5348C35.4597 11.0322 35.386 11.0532 35.3222 11.093C35.2585 11.1328 35.2074 11.1899 35.1748 11.2576C34.5125 12.6374 34.3533 14.2053 34.7248 15.6901C34.7506 15.7791 34.8067 15.8563 34.8834 15.9084C34.9601 15.9604 35.0525 15.984 35.1448 15.9751C35.4148 15.9751 35.6923 15.9751 35.9773 15.9751H36.4873C36.5506 15.9774 36.6136 15.9642 36.6707 15.9367C36.7277 15.9092 36.7773 15.8681 36.8149 15.8172C36.8526 15.7662 36.8773 15.7068 36.8869 15.6442C36.8964 15.5815 36.8906 15.5175 36.8698 15.4576C36.6667 14.8246 36.6091 14.1539 36.7013 13.4955C36.7935 12.8371 37.0331 12.208 37.4023 11.6551C37.4463 11.5959 37.4727 11.5255 37.4783 11.4519C37.4839 11.3784 37.4686 11.3047 37.434 11.2396C37.3995 11.1744 37.3472 11.1203 37.2831 11.0837C37.2191 11.0471 37.146 11.0294 37.0723 11.0326Z" fill="#18B884"/>
<path d="M16.395 5.01019C16.397 5.08073 16.418 5.14941 16.456 5.20892C16.4939 5.26842 16.5473 5.31651 16.6104 5.34807C16.6735 5.37963 16.744 5.39347 16.8144 5.38812C16.8848 5.38277 16.9524 5.35843 17.01 5.31769L18.285 4.45519C18.3465 4.41387 18.3953 4.35615 18.4258 4.28855C18.4563 4.22096 18.4673 4.14619 18.4575 4.07269C18.2296 2.5575 17.4787 1.16981 16.335 0.150189C16.2635 0.0903838 16.1732 0.0576172 16.08 0.0576172C15.9868 0.0576172 15.8965 0.0903838 15.825 0.150189C15.615 0.322689 15.39 0.487689 15.1575 0.652689L14.73 0.930189C14.6789 0.966193 14.6372 1.01394 14.6085 1.06941C14.5797 1.12488 14.5647 1.18645 14.5647 1.24894C14.5647 1.31142 14.5797 1.37299 14.6085 1.42847C14.6372 1.48394 14.6789 1.53169 14.73 1.56769C15.2477 1.9801 15.6661 2.50358 15.9543 3.09944C16.2425 3.6953 16.3931 4.3483 16.395 5.01019Z" fill="#18B884"/>
<path d="M25.4999 4.67264C26.4236 4.67264 27.1724 3.92383 27.1724 3.00014C27.1724 2.07644 26.4236 1.32764 25.4999 1.32764C24.5762 1.32764 23.8274 2.07644 23.8274 3.00014C23.8274 3.92383 24.5762 4.67264 25.4999 4.67264Z" fill="#18B884"/>
<path d="M34.9723 39.345C35.896 39.345 36.6448 38.5962 36.6448 37.6725C36.6448 36.7488 35.896 36 34.9723 36C34.0486 36 33.2998 36.7488 33.2998 37.6725C33.2998 38.5962 34.0486 39.345 34.9723 39.345Z" fill="#18B884"/>
<path d="M34.7099 30.6C34.9145 30.297 35.0057 29.9316 34.9672 29.568C34.9288 29.2044 34.7633 28.8661 34.4999 28.6125L32.3249 26.4525L15.5474 9.67502L13.3874 7.50002C13.1348 7.23544 12.7969 7.06854 12.4333 7.02875C12.0697 6.98896 11.7037 7.07883 11.3999 7.28252C11.2273 7.40889 11.0838 7.57069 10.9789 7.75709C10.874 7.94349 10.8101 8.15017 10.7917 8.36326C10.7732 8.57635 10.8005 8.79093 10.8718 8.9926C10.9431 9.19426 11.0566 9.37836 11.2049 9.53252L11.8274 10.155C11.7717 10.2391 11.7216 10.3268 11.6774 10.4175L7.99491 19.7025C7.87527 19.9972 7.83584 20.3183 7.88063 20.6332C7.92542 20.948 8.05284 21.2454 8.24991 21.495C8.66335 22.0023 8.89959 22.6308 8.92261 23.2848C8.94563 23.9388 8.75416 24.5824 8.37741 25.1175C8.1443 25.4482 7.84674 25.7282 7.5026 25.9409C7.15847 26.1536 6.77488 26.2944 6.37491 26.355C6.06585 26.3922 5.77207 26.5103 5.52319 26.6972C5.27432 26.8842 5.07916 27.1335 4.95741 27.42L0.142406 39.36C0.00208124 39.7092 -0.0325552 40.0919 0.0428011 40.4605C0.118157 40.8292 0.300184 41.1676 0.566262 41.4337C0.83234 41.6997 1.17074 41.8818 1.53941 41.9571C1.90807 42.0325 2.29076 41.9979 2.63991 41.8575L14.5949 37.08C14.8814 36.9583 15.1307 36.7631 15.3177 36.5142C15.5047 36.2654 15.6227 35.9716 15.6599 35.6625C15.7303 35.1977 15.909 34.756 16.1815 34.3729C16.4541 33.9898 16.8128 33.6762 17.2288 33.4572C17.6448 33.2382 18.1065 33.1201 18.5765 33.1124C19.0466 33.1046 19.5119 33.2074 19.9349 33.4125C20.1406 33.5129 20.3344 33.6362 20.5124 33.78C20.7656 33.9709 21.0646 34.0916 21.3794 34.1298C21.6942 34.168 22.0134 34.1224 22.3049 33.9975L31.4999 30.315C31.5906 30.2708 31.6783 30.2207 31.7624 30.165L32.3849 30.7875C32.539 30.9495 32.7274 31.075 32.9363 31.1548C33.1452 31.2346 33.3693 31.2667 33.5922 31.2487C33.815 31.2307 34.0311 31.1631 34.2245 31.0509C34.4179 30.9387 34.5837 30.7846 34.7099 30.6ZM14.0099 32.175C13.5621 32.4992 13.0334 32.6934 12.4822 32.7361C11.931 32.7788 11.3788 32.6683 10.8864 32.4169C10.394 32.1655 9.9807 31.7829 9.69204 31.3114C9.40338 30.84 9.25062 30.2979 9.25062 29.745C9.25062 29.1922 9.40338 28.6501 9.69204 28.1786C9.9807 27.7071 10.394 27.3245 10.8864 27.0731C11.3788 26.8218 11.931 26.7113 12.4822 26.754C13.0334 26.7967 13.5621 26.9908 14.0099 27.315C14.3941 27.5932 14.7068 27.9584 14.9225 28.3808C15.1382 28.8032 15.2506 29.2707 15.2506 29.745C15.2506 30.2193 15.1382 30.6868 14.9225 31.1092C14.7068 31.5316 14.3941 31.8969 14.0099 32.175Z" fill="#18B884"/>
<path d="M20.9999 9.76535C21.4224 9.76535 21.7649 9.42285 21.7649 9.00035C21.7649 8.57785 21.4224 8.23535 20.9999 8.23535C20.5774 8.23535 20.2349 8.57785 20.2349 9.00035C20.2349 9.42285 20.5774 9.76535 20.9999 9.76535Z" fill="#18B884"/>
<path d="M35.9999 21.7654C36.4224 21.7654 36.7649 21.4228 36.7649 21.0004C36.7649 20.5779 36.4224 20.2354 35.9999 20.2354C35.5774 20.2354 35.2349 20.5779 35.2349 21.0004C35.2349 21.4228 35.5774 21.7654 35.9999 21.7654Z" fill="#18B884"/>
<path d="M29.7975 19.9504C30.22 19.9504 30.5625 19.6079 30.5625 19.1854C30.5625 18.7629 30.22 18.4204 29.7975 18.4204C29.375 18.4204 29.0325 18.7629 29.0325 19.1854C29.0325 19.6079 29.375 19.9504 29.7975 19.9504Z" fill="#18B884"/>
<path d="M4.49986 9.76535C4.92236 9.76535 5.26486 9.42285 5.26486 9.00035C5.26486 8.57785 4.92236 8.23535 4.49986 8.23535C4.07737 8.23535 3.73486 8.57785 3.73486 9.00035C3.73486 9.42285 4.07737 9.76535 4.49986 9.76535Z" fill="#18B884"/>
<path d="M28.0123 13.1551C27.9239 13.2437 27.8743 13.3637 27.8743 13.4889C27.8743 13.614 27.9239 13.734 28.0123 13.8226L28.4023 14.2126C28.4909 14.301 28.6109 14.3506 28.7361 14.3506C28.8612 14.3506 28.9812 14.301 29.0698 14.2126L29.4598 13.8226C29.5484 13.7342 29.6684 13.6846 29.7936 13.6846C29.9187 13.6846 30.0387 13.7342 30.1273 13.8226L30.5173 14.2126C30.6059 14.301 30.7259 14.3506 30.8511 14.3506C30.9762 14.3506 31.0962 14.301 31.1848 14.2126L31.5748 13.8226C31.6632 13.734 31.7128 13.614 31.7128 13.4889C31.7128 13.3637 31.6632 13.2437 31.5748 13.1551L31.1923 12.7501C31.1039 12.6615 31.0543 12.5415 31.0543 12.4164C31.0543 12.2912 31.1039 12.1712 31.1923 12.0826L31.5823 11.6926C31.6707 11.604 31.7203 11.484 31.7203 11.3589C31.7203 11.2337 31.6707 11.1137 31.5823 11.0251L31.1923 10.6351C31.1037 10.5467 30.9837 10.4971 30.8586 10.4971C30.7334 10.4971 30.6134 10.5467 30.5248 10.6351L30.1348 11.0251C30.0462 11.1135 29.9262 11.1631 29.8011 11.1631C29.6759 11.1631 29.5559 11.1135 29.4673 11.0251L29.0773 10.6351C28.9887 10.5467 28.8687 10.4971 28.7436 10.4971C28.6184 10.4971 28.4984 10.5467 28.4098 10.6351L28.0198 11.0251C27.9314 11.1137 27.8818 11.2337 27.8818 11.3589C27.8818 11.484 27.9314 11.604 28.0198 11.6926L28.4098 12.0826C28.4982 12.1712 28.5478 12.2912 28.5478 12.4164C28.5478 12.5415 28.4982 12.6615 28.4098 12.7501L28.0123 13.1551Z" fill="#18B884"/>
<path d="M37.2523 2.55759H36.8623C36.7785 2.55778 36.6978 2.52612 36.6366 2.46902C36.5753 2.41192 36.538 2.33365 36.5323 2.25009V1.83009C36.5323 1.78611 36.5235 1.74258 36.5065 1.70204C36.4894 1.66151 36.4645 1.62479 36.433 1.59405C36.4016 1.5633 36.3643 1.53916 36.3234 1.52302C36.2825 1.50688 36.2388 1.49909 36.1948 1.50009H35.8048C35.7615 1.50009 35.7186 1.50862 35.6785 1.52521C35.6385 1.54179 35.6021 1.5661 35.5715 1.59674C35.5408 1.62738 35.5165 1.66376 35.4999 1.7038C35.4833 1.74384 35.4748 1.78675 35.4748 1.83009V2.25009C35.4748 2.33761 35.44 2.42154 35.3781 2.48343C35.3163 2.54532 35.2323 2.58009 35.1448 2.58009H34.7548C34.6673 2.58009 34.5833 2.61485 34.5215 2.67674C34.4596 2.73863 34.4248 2.82256 34.4248 2.91009V3.30009C34.4248 3.38761 34.4596 3.47154 34.5215 3.53343C34.5833 3.59532 34.6673 3.63009 34.7548 3.63009H35.1448C35.2323 3.63009 35.3163 3.66485 35.3781 3.72674C35.44 3.78863 35.4748 3.87256 35.4748 3.96009V4.35009C35.4748 4.43761 35.5096 4.52154 35.5715 4.58343C35.6333 4.64532 35.7173 4.68008 35.8048 4.68008H36.1948C36.2823 4.68008 36.3663 4.64532 36.4282 4.58343C36.49 4.52154 36.5248 4.43761 36.5248 4.35009V3.95259C36.5248 3.86506 36.5596 3.78113 36.6215 3.71924C36.6833 3.65735 36.7673 3.62259 36.8548 3.62259H37.2448C37.3323 3.62259 37.4163 3.58782 37.4781 3.52593C37.54 3.46404 37.5748 3.38011 37.5748 3.29259V2.89509C37.5758 2.85175 37.5682 2.80864 37.5526 2.76822C37.5369 2.7278 37.5134 2.69086 37.4835 2.65952C37.4535 2.62818 37.4177 2.60304 37.378 2.58555C37.3384 2.56806 37.2956 2.55856 37.2523 2.55759Z" fill="#18B884"/>
<path d="M41.3324 31.8151H40.9424C40.8549 31.8151 40.7709 31.7803 40.709 31.7184C40.6472 31.6566 40.6124 31.5726 40.6124 31.4851V31.0951C40.6145 31.0499 40.6072 31.0047 40.5911 30.9624C40.5749 30.9201 40.5503 30.8816 40.5186 30.8492C40.487 30.8169 40.449 30.7914 40.4071 30.7743C40.3651 30.7573 40.3201 30.749 40.2749 30.7501H39.8849C39.7974 30.7501 39.7134 30.7849 39.6515 30.8467C39.5897 30.9086 39.5549 30.9926 39.5549 31.0801V31.5001C39.5549 31.5876 39.5201 31.6716 39.4582 31.7334C39.3963 31.7953 39.3124 31.8301 39.2249 31.8301H38.8349C38.7474 31.8301 38.6634 31.8649 38.6015 31.9267C38.5396 31.9886 38.5049 32.0726 38.5049 32.1601V32.5501C38.5049 32.6376 38.5396 32.7216 38.6015 32.7834C38.6634 32.8453 38.7474 32.8801 38.8349 32.8801H39.2249C39.3124 32.8801 39.3963 32.9149 39.4582 32.9767C39.5201 33.0386 39.5549 33.1226 39.5549 33.2101V33.6001C39.5549 33.6876 39.5897 33.7716 39.6515 33.8334C39.7134 33.8953 39.7974 33.9301 39.8849 33.9301H40.2749C40.3624 33.9301 40.4463 33.8953 40.5082 33.8334C40.5701 33.7716 40.6049 33.6876 40.6049 33.6001V33.2101C40.6049 33.1226 40.6396 33.0386 40.7015 32.9767C40.7634 32.9149 40.8474 32.8801 40.9349 32.8801H41.3249C41.4124 32.8801 41.4963 32.8453 41.5582 32.7834C41.6201 32.7216 41.6549 32.6376 41.6549 32.5501V32.1601C41.6569 32.1161 41.6501 32.0722 41.6349 32.0309C41.6197 31.9896 41.5963 31.9518 41.5663 31.9197C41.5363 31.8875 41.5001 31.8617 41.4599 31.8437C41.4197 31.8258 41.3764 31.816 41.3324 31.8151Z" fill="#18B884"/>
<path d="M1.73998 17.1002C1.70845 17.131 1.6834 17.1677 1.6663 17.2083C1.64919 17.2489 1.64038 17.2925 1.64038 17.3365C1.64038 17.3805 1.64919 17.4241 1.6663 17.4647C1.6834 17.5053 1.70845 17.542 1.73998 17.5727L2.01748 17.8502C2.04822 17.8818 2.08496 17.9068 2.12553 17.9239C2.16611 17.941 2.20969 17.9498 2.25373 17.9498C2.29776 17.9498 2.34135 17.941 2.38192 17.9239C2.42249 17.9068 2.45923 17.8818 2.48998 17.8502L2.76748 17.5727C2.79822 17.5412 2.83496 17.5162 2.87553 17.4991C2.91611 17.482 2.95969 17.4731 3.00373 17.4731C3.04776 17.4731 3.09135 17.482 3.13192 17.4991C3.17249 17.5162 3.20923 17.5412 3.23998 17.5727L3.51748 17.8502C3.54822 17.8818 3.58496 17.9068 3.62553 17.9239C3.66611 17.941 3.70969 17.9498 3.75373 17.9498C3.79776 17.9498 3.84135 17.941 3.88192 17.9239C3.92249 17.9068 3.95923 17.8818 3.98998 17.8502L4.26748 17.5727C4.299 17.542 4.32405 17.5053 4.34116 17.4647C4.35826 17.4241 4.36707 17.3805 4.36707 17.3365C4.36707 17.2925 4.35826 17.2489 4.34116 17.2083C4.32405 17.1677 4.299 17.131 4.26748 17.1002L3.98998 16.8227C3.95845 16.792 3.9334 16.7553 3.9163 16.7147C3.89919 16.6741 3.89038 16.6305 3.89038 16.5865C3.89038 16.5425 3.89919 16.4989 3.9163 16.4583C3.9334 16.4177 3.95845 16.381 3.98998 16.3502L4.26748 16.0727C4.299 16.042 4.32405 16.0053 4.34116 15.9647C4.35826 15.9241 4.36707 15.8805 4.36707 15.8365C4.36707 15.7925 4.35826 15.7489 4.34116 15.7083C4.32405 15.6677 4.299 15.631 4.26748 15.6002L3.98998 15.3227C3.95923 15.2912 3.92249 15.2662 3.88192 15.2491C3.84135 15.232 3.79776 15.2231 3.75373 15.2231C3.70969 15.2231 3.66611 15.232 3.62553 15.2491C3.58496 15.2662 3.54822 15.2912 3.51748 15.3227L3.23998 15.6002C3.20923 15.6318 3.17249 15.6568 3.13192 15.6739C3.09135 15.691 3.04776 15.6998 3.00373 15.6998C2.95969 15.6998 2.91611 15.691 2.87553 15.6739C2.83496 15.6568 2.79822 15.6318 2.76748 15.6002L2.48998 15.3227C2.45923 15.2912 2.42249 15.2662 2.38192 15.2491C2.34135 15.232 2.29776 15.2231 2.25373 15.2231C2.20969 15.2231 2.16611 15.232 2.12553 15.2491C2.08496 15.2662 2.04822 15.2912 2.01748 15.3227L1.73998 15.6002C1.70845 15.631 1.6834 15.6677 1.6663 15.7083C1.64919 15.7489 1.64038 15.7925 1.64038 15.8365C1.64038 15.8805 1.64919 15.9241 1.6663 15.9647C1.6834 16.0053 1.70845 16.042 1.73998 16.0727L2.01748 16.3502C2.049 16.381 2.07405 16.4177 2.09116 16.4583C2.10826 16.4989 2.11707 16.5425 2.11707 16.5865C2.11707 16.6305 2.10826 16.6741 2.09116 16.7147C2.07405 16.7553 2.049 16.792 2.01748 16.8227L1.73998 17.1002Z" fill="#18B884"/>
</svg>
