<svg width="42" height="45" viewBox="0 0 42 45" fill="none" xmlns="http://www.w3.org/2000/svg">
<path d="M10.3438 9.73437C12.9326 9.73437 15.0313 7.63571 15.0313 5.04688C15.0313 2.45804 12.9326 0.359375 10.3438 0.359375C7.75492 0.359375 5.65625 2.45804 5.65625 5.04688C5.65625 7.63571 7.75492 9.73437 10.3438 9.73437Z" fill="#18B884"/>
<path d="M20.4375 44.1094C20.6633 44.1094 20.8799 44.0197 21.0396 43.86C21.1993 43.7003 21.2891 43.4837 21.2891 43.2578V40.9844C21.2891 40.57 21.1244 40.1725 20.8314 39.8795C20.5384 39.5865 20.141 39.4219 19.7266 39.4219C19.3122 39.4219 18.9147 39.5865 18.6217 39.8795C18.3287 40.1725 18.1641 40.57 18.1641 40.9844V43.2578C18.1641 43.4837 18.2538 43.7003 18.4135 43.86C18.5732 44.0197 18.7898 44.1094 19.0156 44.1094H20.4375Z" fill="#18B884"/>
<path d="M33.2031 44.1094C33.279 44.1094 33.3542 44.0944 33.4244 44.0654C33.4945 44.0363 33.5582 43.9937 33.6119 43.94C33.6656 43.8864 33.7082 43.8226 33.7372 43.7525C33.7663 43.6823 33.7812 43.6072 33.7812 43.5313V42.4609C33.7812 42.0693 33.6257 41.6938 33.3488 41.4169C33.0719 41.1399 32.6963 40.9844 32.3047 40.9844H32.1328C31.7412 40.9844 31.3656 41.1399 31.0887 41.4169C30.8118 41.6938 30.6562 42.0693 30.6562 42.4609V43.5313C30.6563 43.6846 30.7172 43.8316 30.8256 43.94C30.934 44.0485 31.081 44.1094 31.2344 44.1094H33.2031Z" fill="#18B884"/>
<path d="M32.2188 9.73437H35.2188C35.6663 9.73437 36.0955 9.55659 36.412 9.24012C36.7285 8.92365 36.9062 8.49443 36.9062 8.04688V5.04688C36.9062 3.80367 36.4124 2.61139 35.5333 1.73231C34.6542 0.853235 33.462 0.359375 32.2188 0.359375C30.9755 0.359375 29.7833 0.853235 28.9042 1.73231C28.0251 2.61139 27.5313 3.80367 27.5313 5.04688V8.04688C27.5312 8.49443 27.709 8.92365 28.0255 9.24012C28.342 9.55659 28.7712 9.73437 29.2187 9.73437H32.2188Z" fill="#18B884"/>
<path d="M4.78125 11.2969C3.77011 11.2969 2.80039 11.6985 2.08541 12.4135C1.37042 13.1285 0.96875 14.0982 0.96875 15.1094V23.875C0.969696 24.0774 1.01117 24.2775 1.09071 24.4636C1.17026 24.6497 1.28627 24.818 1.43191 24.9585C1.57754 25.0991 1.74984 25.209 1.93866 25.2819C2.12747 25.3548 2.32896 25.3891 2.53125 25.3828C2.94565 25.3828 3.34308 25.5474 3.6361 25.8405C3.92913 26.1335 4.09375 26.5309 4.09375 26.9453V41.6328C4.07951 42.2503 4.30099 42.85 4.71313 43.3101C5.12528 43.7701 5.69716 44.0559 6.3125 44.1094C6.63064 44.1264 6.9489 44.0783 7.24785 43.9682C7.54679 43.858 7.82014 43.6881 8.05119 43.4687C8.28224 43.2494 8.46615 42.9852 8.59167 42.6924C8.7172 42.3996 8.7817 42.0842 8.78125 41.7656V33.25C8.7712 32.8721 8.89387 32.5026 9.12794 32.2057C9.362 31.9089 9.69267 31.7034 10.0625 31.625C10.2888 31.5859 10.5209 31.5972 10.7423 31.6581C10.9637 31.7189 11.1689 31.8278 11.3435 31.977C11.518 32.1261 11.6575 32.312 11.7521 32.5212C11.8467 32.7304 11.894 32.9579 11.8906 33.1875V41.3594C11.8906 41.7225 11.9625 42.082 12.1022 42.4172C12.2418 42.7524 12.4465 43.0566 12.7043 43.3123C12.9622 43.5679 13.2681 43.77 13.6045 43.9068C13.9408 44.0436 14.301 44.1125 14.6641 44.1094C14.7601 44.1053 14.8507 44.0638 14.9164 43.9937C14.9821 43.9236 15.0178 43.8305 15.0156 43.7344V26.4609C15.0156 26.1688 15.1317 25.8886 15.3383 25.682C15.5448 25.4754 15.825 25.3594 16.1172 25.3594H18.1406V25.1641C18.1367 24.9133 18.061 24.669 17.9226 24.4599C17.7841 24.2509 17.5887 24.0858 17.3594 23.9844C15.7422 23.2031 14.7266 21.9141 15.0547 19.8906C15.1804 19.0698 15.5256 18.2983 16.0537 17.6574C16.5817 17.0166 17.2731 16.5303 18.0547 16.25C18.7647 15.9876 19.5278 15.901 20.2786 15.9977C21.0293 16.0944 21.7455 16.3715 22.3659 16.8053C22.9863 17.2391 23.4923 17.8167 23.8409 18.4887C24.1894 19.1607 24.37 19.9071 24.3672 20.6641C24.3672 22.3984 23.4219 23.3438 22.0234 23.9844C21.7929 24.0864 21.5967 24.2526 21.4581 24.4632C21.3196 24.6738 21.2446 24.9198 21.2422 25.1719V25.3516H23.3437C23.6345 25.3536 23.9127 25.4706 24.1176 25.677C24.3225 25.8833 24.4375 26.1623 24.4375 26.4531V42.5469C24.4375 42.9613 24.6021 43.3587 24.8951 43.6517C25.1882 43.9448 25.5856 44.1094 26 44.1094C26.4144 44.1094 26.8118 43.9448 27.1048 43.6517C27.3979 43.3587 27.5625 42.9613 27.5625 42.5469V34.7344C27.5625 33.9056 27.8917 33.1107 28.4778 32.5247C29.0638 31.9386 29.8587 31.6094 30.6875 31.6094V31.3125C29.645 30.9439 28.7663 30.2186 28.2068 29.2649C27.6473 28.3111 27.443 27.1903 27.63 26.1004C27.817 25.0106 28.3832 24.0219 29.2286 23.3092C30.0741 22.5965 31.1442 22.2056 32.25 22.2056C33.3558 22.2056 34.4259 22.5965 35.2713 23.3092C36.1168 24.0219 36.683 25.0106 36.87 26.1004C37.057 27.1903 36.8527 28.3111 36.2932 29.2649C35.7337 30.2186 34.855 30.9439 33.8125 31.3125V31.6094C34.6413 31.6094 35.4361 31.9386 36.0222 32.5247C36.6083 33.1107 36.9375 33.9056 36.9375 34.7344V43.2422C36.9375 43.4722 37.0289 43.6928 37.1915 43.8554C37.3541 44.018 37.5747 44.1094 37.8047 44.1094C38.4035 44.1094 38.9778 43.8715 39.4012 43.4481C39.8246 43.0247 40.0625 42.4504 40.0625 41.8516V27.4688C40.0883 27.0306 40.2043 26.6025 40.4033 26.2113C40.6023 25.8201 40.8799 25.4742 41.2187 25.1953C41.342 25.1051 41.4428 24.9877 41.5133 24.8522C41.5837 24.7167 41.622 24.5668 41.625 24.4141V15.1016C41.625 14.6009 41.5264 14.1051 41.3348 13.6426C41.1432 13.18 40.8624 12.7597 40.5083 12.4057C40.1543 12.0517 39.734 11.7709 39.2715 11.5793C38.8089 11.3877 38.3132 11.2891 37.8125 11.2891H4.78125V11.2969Z" fill="#18B884"/>
</svg>
