<svg width="16" height="16" viewBox="0 0 16 16" fill="none" xmlns="http://www.w3.org/2000/svg">
<path d="M15.0837 4.10449H10.8337" stroke="white" stroke-width="1.5" stroke-miterlimit="10" stroke-linecap="round" stroke-linejoin="round"/>
<path d="M3.75002 4.10449H0.916687" stroke="white" stroke-width="1.5" stroke-miterlimit="10" stroke-linecap="round" stroke-linejoin="round"/>
<path d="M6.58354 6.58333C7.95274 6.58333 9.0627 5.47337 9.0627 4.10417C9.0627 2.73496 7.95274 1.625 6.58354 1.625C5.21433 1.625 4.10437 2.73496 4.10437 4.10417C4.10437 5.47337 5.21433 6.58333 6.58354 6.58333Z" stroke="white" stroke-width="1.5" stroke-miterlimit="10" stroke-linecap="round" stroke-linejoin="round"/>
<path d="M15.0835 11.8955H12.2502" stroke="white" stroke-width="1.5" stroke-miterlimit="10" stroke-linecap="round" stroke-linejoin="round"/>
<path d="M5.16669 11.8955H0.916687" stroke="white" stroke-width="1.5" stroke-miterlimit="10" stroke-linecap="round" stroke-linejoin="round"/>
<path d="M9.41685 14.3753C10.7861 14.3753 11.896 13.2654 11.896 11.8962C11.896 10.527 10.7861 9.41699 9.41685 9.41699C8.04764 9.41699 6.93768 10.527 6.93768 11.8962C6.93768 13.2654 8.04764 14.3753 9.41685 14.3753Z" stroke="white" stroke-width="1.5" stroke-miterlimit="10" stroke-linecap="round" stroke-linejoin="round"/>
</svg>
