<svg width="32" height="18" viewBox="0 0 32 48" fill="none" xmlns="http://www.w3.org/2000/svg">
<path d="M27.2838 0H4.70278C2.55403 0 0.821533 1.7445 0.821533 3.8925V48H31.1785V3.8925C31.1785 1.7445 29.4325 0 27.2838 0ZM15.9985 5.943C20.1415 5.943 23.5015 9.30225 23.5015 13.446C23.5015 17.5897 20.1408 20.9475 15.9985 20.9475C11.8563 20.9475 8.49628 17.589 8.49628 13.446C8.49628 9.303 11.8555 5.943 15.9985 5.943ZM15.9985 42.3945C10.6953 42.3945 6.39478 38.0963 6.39478 32.79C6.39478 27.4868 10.6953 23.1855 15.9985 23.1855C21.3048 23.1855 25.6023 27.4868 25.6023 32.79C25.6023 38.0963 21.304 42.3945 15.9985 42.3945Z" fill="#18B884"/>
</svg>
